STARTFONT 2.1
FONT -FontForge-Syncopate-Book-R-Normal--36-360-72-72-P-270-ISO10646-1
SIZE 36 72 72
FONTBOUNDINGBOX 66 41 -7 -8
COMMENT "Generated by fontforge, http://fontforge.sourceforge.net"
COMMENT "Copyright (c) 2010 by Brian J. Bonislawsky DBA Astigmatic (AOETI). All rights reserved. Available under the Apache 2.0 licence.http://www.apache.org/licenses/LICENSE-2.0.html"
STARTPROPERTIES 39
FOUNDRY "FontForge"
FAMILY_NAME "Syncopate"
WEIGHT_NAME "Book"
SLANT "R"
SETWIDTH_NAME "Normal"
ADD_STYLE_NAME ""
PIXEL_SIZE 36
POINT_SIZE 360
RESOLUTION_X 72
RESOLUTION_Y 72
SPACING "P"
AVERAGE_WIDTH 270
CHARSET_REGISTRY "ISO10646"
CHARSET_ENCODING "1"
FONTNAME_REGISTRY ""
CHARSET_COLLECTIONS "ISO8859-2 ISO8859-9 ISO8859-4 ISO10646-1"
FONT_NAME "Syncopate-Regular"
FACE_NAME "Syncopate Regular"
COPYRIGHT "Copyright (c) 2010 by Brian J. Bonislawsky DBA Astigmatic (AOETI). All rights reserved. Available under the Apache 2.0 licence.http://www.apache.org/licenses/LICENSE-2.0.html"
FONT_VERSION "001.001"
FONT_ASCENT 29
FONT_DESCENT 7
UNDERLINE_POSITION -4
UNDERLINE_THICKNESS 2
X_HEIGHT 23
CAP_HEIGHT 23
RAW_ASCENT 799
RAW_DESCENT 200
NORM_SPACE 14
RELATIVE_WEIGHT 40
RELATIVE_SETWIDTH 70
SUPERSCRIPT_X 0
SUPERSCRIPT_Y 10
SUPERSCRIPT_SIZE 7
SUBSCRIPT_X 0
SUBSCRIPT_Y 10
SUBSCRIPT_SIZE 7
AVG_LOWERCASE_WIDTH 309
AVG_UPPERCASE_WIDTH 294
ENDPROPERTIES
CHARS 370
STARTCHAR space
ENCODING 32
SWIDTH 375 0
DWIDTH 14 0
BBX 1 1 0 0
BITMAP
00
ENDCHAR
STARTCHAR exclam
ENCODING 33
SWIDTH 274 0
DWIDTH 10 0
BBX 3 24 4 0
BITMAP
E0
E0
E0
E0
E0
E0
E0
E0
E0
E0
E0
E0
E0
E0
60
40
40
40
00
00
00
E0
E0
E0
ENDCHAR
STARTCHAR quotedbl
ENCODING 34
SWIDTH 290 0
DWIDTH 10 0
BBX 8 7 1 17
BITMAP
E7
E7
E7
E7
E7
E7
E7
ENDCHAR
STARTCHAR numbersign
ENCODING 35
SWIDTH 701 0
DWIDTH 25 0
BBX 22 24 2 0
BITMAP
00C060
00C060
00C060
00C060
0180C0
0180C0
0180C0
3FFFFC
3FFFFC
030180
030180
030180
030180
060300
060300
060300
FFFFF0
FFFFF0
0C0600
0C0600
0C0600
0C0600
180C00
180C00
ENDCHAR
STARTCHAR dollar
ENCODING 36
SWIDTH 767 0
DWIDTH 28 0
BBX 22 28 3 -2
BITMAP
003000
003000
03FE00
1FFFE0
7C30F0
603010
C03000
C03000
C03000
E03000
703000
3C3000
0FF000
03FC00
003F80
0033E0
003078
003018
00300C
00300C
00300C
00301C
803038
F830F0
FFFFE0
1FFF00
003000
003000
ENDCHAR
STARTCHAR percent
ENCODING 37
SWIDTH 992 0
DWIDTH 36 0
BBX 31 24 2 0
BITMAP
0FC000C0
3FF00180
70380300
60180600
C00C0C00
C00C0C00
C00C1800
C00C3000
60186000
7038C000
3FF0C000
0FC18000
000307E0
00061FF8
0006381C
000C300C
00186006
00306006
00606006
00606006
00C0300C
0180381C
03001FF8
060007E0
ENDCHAR
STARTCHAR ampersand
ENCODING 38
SWIDTH 926 0
DWIDTH 33 0
BBX 29 24 3 0
BITMAP
00FF0000
03FFC000
0701E000
0E006000
0C006000
0C006000
0C00C000
06038000
070E0000
03BC0000
01E00000
07E00000
0E700000
38380060
701C0060
600700C0
C00380C0
C001E1C0
C0007380
E0003F00
70000E00
3E007F80
1FFFF1C0
03FF00F8
ENDCHAR
STARTCHAR quotesingle
ENCODING 39
SWIDTH 140 0
DWIDTH 5 0
BBX 3 7 1 17
BITMAP
E0
E0
E0
E0
E0
E0
E0
ENDCHAR
STARTCHAR parenleft
ENCODING 40
SWIDTH 420 0
DWIDTH 15 0
BBX 9 29 3 -2
BITMAP
0100
0380
0700
0E00
1C00
3800
3000
7000
6000
6000
E000
C000
C000
C000
C000
C000
C000
C000
E000
6000
6000
7000
3000
3800
1C00
0E00
0700
0380
0100
ENDCHAR
STARTCHAR parenright
ENCODING 41
SWIDTH 420 0
DWIDTH 15 0
BBX 9 29 3 -2
BITMAP
4000
E000
7000
3800
1C00
0E00
0600
0700
0300
0300
0380
0180
0180
0180
0180
0180
0180
0180
0380
0300
0300
0700
0600
0E00
1C00
3800
7000
E000
4000
ENDCHAR
STARTCHAR asterisk
ENCODING 42
SWIDTH 503 0
DWIDTH 18 0
BBX 15 14 2 10
BITMAP
0380
0380
8384
E38E
739C
1FF0
07C0
07C0
1FF0
739C
E38E
8384
0380
0380
ENDCHAR
STARTCHAR plus
ENCODING 43
SWIDTH 634 0
DWIDTH 23 0
BBX 16 18 3 3
BITMAP
0180
0180
0180
0180
0180
0180
0180
0180
FFFF
FFFF
0180
0180
0180
0180
0180
0180
0180
0180
ENDCHAR
STARTCHAR comma
ENCODING 44
SWIDTH 185 0
DWIDTH 7 0
BBX 4 7 1 -3
BITMAP
70
70
60
60
E0
C0
C0
ENDCHAR
STARTCHAR hyphen
ENCODING 45
SWIDTH 540 0
DWIDTH 19 0
BBX 14 2 3 11
BITMAP
FFFC
FFFC
ENDCHAR
STARTCHAR period
ENCODING 46
SWIDTH 185 0
DWIDTH 7 0
BBX 3 4 2 0
BITMAP
E0
E0
E0
E0
ENDCHAR
STARTCHAR slash
ENCODING 47
SWIDTH 500 0
DWIDTH 18 0
BBX 14 26 2 -1
BITMAP
000C
0018
0018
0030
0030
0060
0060
0060
00C0
00C0
0180
0180
0300
0300
0600
0600
0C00
0C00
1800
1800
1800
3000
3000
6000
6000
C000
ENDCHAR
STARTCHAR zero
ENCODING 48
SWIDTH 833 0
DWIDTH 30 0
BBX 26 24 2 0
BITMAP
007F8000
01FFE000
07C0F800
0E001C00
18000600
30000300
70000380
60000180
E00001C0
C00000C0
C00000C0
C00000C0
C00000C0
C00000C0
C00000C0
E00001C0
60000180
70000380
30000300
18000600
0E001C00
07807800
03FFF000
007F8000
ENDCHAR
STARTCHAR one
ENCODING 49
SWIDTH 339 0
DWIDTH 12 0
BBX 8 24 0 0
BITMAP
0F
7F
FB
C3
03
03
03
03
03
03
03
03
03
03
03
03
03
03
03
03
03
03
03
03
ENDCHAR
STARTCHAR two
ENCODING 50
SWIDTH 728 0
DWIDTH 26 0
BBX 23 24 1 0
BITMAP
03FE00
1FFFC0
7C01E0
E00070
800018
00001C
00000C
00000C
00000C
00001C
000018
000030
000060
0001C0
000380
000700
001C00
007800
01E000
038000
0F0000
3C0000
FFFFFE
FFFFFE
ENDCHAR
STARTCHAR three
ENCODING 51
SWIDTH 726 0
DWIDTH 26 0
BBX 22 24 2 0
BITMAP
1FFE00
FFFFC0
F001E0
800070
000038
000018
000018
000018
000070
0003E0
01FF00
01FF80
0003E0
000030
000018
00000C
00000C
00000C
00000C
000018
800038
F001F0
FFFFC0
3FFE00
ENDCHAR
STARTCHAR four
ENCODING 52
SWIDTH 769 0
DWIDTH 28 0
BBX 25 24 1 0
BITMAP
0001E000
0003E000
00076000
000E6000
001C6000
00386000
00706000
00E06000
01C06000
03806000
07006000
0E006000
1C006000
38006000
30006000
60006000
FFFFFF80
FFFFFF80
00006000
00006000
00006000
00006000
00006000
00006000
ENDCHAR
STARTCHAR five
ENCODING 53
SWIDTH 738 0
DWIDTH 27 0
BBX 22 24 2 0
BITMAP
7FFFF0
7FFFF0
600000
600000
600000
600000
600000
600000
600000
7FFE00
7FFFC0
7001F0
000078
000018
00000C
00000C
00000C
00000C
00001C
000018
800078
F803F0
7FFFC0
07FE00
ENDCHAR
STARTCHAR six
ENCODING 54
SWIDTH 772 0
DWIDTH 28 0
BBX 24 24 2 0
BITMAP
007FC0
03FFF8
07803C
1C0004
180000
300000
600000
600000
407F80
C3FFF0
CF807C
FC001C
F00006
E00007
C00003
C00003
E00003
600003
700007
380006
1C001C
0F0078
03FFF0
00FF80
ENDCHAR
STARTCHAR seven
ENCODING 55
SWIDTH 669 0
DWIDTH 24 0
BBX 23 24 0 0
BITMAP
FFFFFE
FFFFFE
00000C
00001C
000038
000030
000070
0000E0
0000C0
0001C0
000180
000300
000700
000600
000E00
001C00
001800
003800
007000
006000
00E000
01C000
018000
038000
ENDCHAR
STARTCHAR eight
ENCODING 56
SWIDTH 793 0
DWIDTH 29 0
BBX 25 24 2 0
BITMAP
00FFC000
07FFF000
1F007C00
18000C00
30000600
30000600
30000600
38000C00
1E003800
07C1F000
01FFC000
01FFE000
0FC1F800
3C001E00
70000700
60000380
C0000180
C0000180
C0000180
E0000380
70000700
3E003E00
0FFFF800
01FFC000
ENDCHAR
STARTCHAR nine
ENCODING 57
SWIDTH 776 0
DWIDTH 28 0
BBX 24 24 2 0
BITMAP
01FF00
0FFFC0
1E01F0
380038
60001C
E0000E
C00006
C00006
C00003
C00003
E00007
60000F
78003B
3E01F3
0FFFC3
01FE02
000006
000006
00000C
000018
200038
3C01E0
1FFFC0
03FE00
ENDCHAR
STARTCHAR colon
ENCODING 58
SWIDTH 245 0
DWIDTH 9 0
BBX 3 17 3 0
BITMAP
E0
E0
E0
E0
00
00
00
00
00
00
00
00
00
E0
E0
E0
E0
ENDCHAR
STARTCHAR semicolon
ENCODING 59
SWIDTH 234 0
DWIDTH 8 0
BBX 4 20 2 -3
BITMAP
70
70
70
70
00
00
00
00
00
00
00
00
00
70
70
60
60
E0
C0
C0
ENDCHAR
STARTCHAR less
ENCODING 60
SWIDTH 634 0
DWIDTH 23 0
BBX 17 18 3 3
BITMAP
000080
000380
000F00
003C00
01F000
07C000
1F0000
7C0000
F00000
F00000
7C0000
1F0000
07C000
01F000
003C00
000F00
000380
000080
ENDCHAR
STARTCHAR equal
ENCODING 61
SWIDTH 634 0
DWIDTH 23 0
BBX 17 9 3 8
BITMAP
FFFF80
FFFF80
000000
000000
000000
000000
000000
FFFF80
FFFF80
ENDCHAR
STARTCHAR greater
ENCODING 62
SWIDTH 634 0
DWIDTH 23 0
BBX 17 18 3 3
BITMAP
800000
E00000
780000
1E0000
07C000
01F000
007C00
001F00
000780
000780
001F00
007C00
01F000
07C000
1E0000
780000
E00000
800000
ENDCHAR
STARTCHAR question
ENCODING 63
SWIDTH 568 0
DWIDTH 20 0
BBX 16 24 2 0
BITMAP
3FE0
FFF8
E03C
800E
0007
0003
0003
0003
0003
0006
000E
0038
01F0
1FC0
1E00
1800
1800
1800
0000
0000
0000
1C00
1C00
1C00
ENDCHAR
STARTCHAR at
ENCODING 64
SWIDTH 1016 0
DWIDTH 37 0
BBX 31 25 3 0
BITMAP
000FF800
007FFF00
01F007C0
078000F0
0E000038
1C000018
3807E60C
301FFC0C
60381C06
60700C06
C0600C06
C0C00C06
C0C00C06
C0C0180E
C0C0180C
C0E0181C
E0707C78
603FEFF0
701F87C0
38000000
1C000000
0E000100
07C00F80
01FFFE00
003FF000
ENDCHAR
STARTCHAR A
ENCODING 65
SWIDTH 812 0
DWIDTH 29 0
BBX 27 24 1 0
BITMAP
000E0000
001F0000
001B0000
003B8000
00318000
0071C000
0060C000
00E0E000
00C06000
01C07000
01803000
03803800
03001800
07001C00
06000C00
0E000E00
1FFFFE00
1FFFFF00
38000380
30000180
700001C0
600000C0
E00000E0
C0000060
ENDCHAR
STARTCHAR B
ENCODING 66
SWIDTH 836 0
DWIDTH 30 0
BBX 24 24 4 0
BITMAP
FFFFC0
FFFFF0
C00078
C0001C
C0000C
C0000C
C0000C
C0000C
C00018
C00078
FFFFE0
FFFFF0
C0003C
C0000E
C00007
C00003
C00003
C00003
C00003
C00003
C00006
C0001E
FFFFF8
FFFFE0
ENDCHAR
STARTCHAR C
ENCODING 67
SWIDTH 869 0
DWIDTH 31 0
BBX 26 24 3 0
BITMAP
003FF800
01FFFF00
07C00FC0
0E0001C0
1C000040
30000000
70000000
60000000
E0000000
C0000000
C0000000
C0000000
C0000000
C0000000
C0000000
E0000000
60000000
70000000
30000000
1C000040
0E0001C0
07C00FC0
01FFFF80
003FF800
ENDCHAR
STARTCHAR D
ENCODING 68
SWIDTH 910 0
DWIDTH 33 0
BBX 26 24 4 0
BITMAP
FFFF8000
FFFFF000
C0007C00
C0000E00
C0000700
C0000380
C0000180
C0000180
C00000C0
C00000C0
C00000C0
C00000C0
C00000C0
C00000C0
C00000C0
C00000C0
C0000180
C0000180
C0000380
C0000700
C0000E00
C0007C00
FFFFF000
FFFF8000
ENDCHAR
STARTCHAR E
ENCODING 69
SWIDTH 754 0
DWIDTH 27 0
BBX 20 24 4 0
BITMAP
FFFFF0
FFFFF0
C00000
C00000
C00000
C00000
C00000
C00000
C00000
C00000
FFFFE0
FFFFE0
C00000
C00000
C00000
C00000
C00000
C00000
C00000
C00000
C00000
C00000
FFFFF0
FFFFF0
ENDCHAR
STARTCHAR F
ENCODING 70
SWIDTH 687 0
DWIDTH 25 0
BBX 19 24 4 0
BITMAP
FFFFE0
FFFFE0
C00000
C00000
C00000
C00000
C00000
C00000
C00000
C00000
FFFFC0
FFFFC0
C00000
C00000
C00000
C00000
C00000
C00000
C00000
C00000
C00000
C00000
C00000
C00000
ENDCHAR
STARTCHAR G
ENCODING 71
SWIDTH 910 0
DWIDTH 33 0
BBX 27 24 3 0
BITMAP
003FF800
01FFFF80
07E00FC0
0E0001C0
1C000040
30000000
70000000
60000000
E0000000
C0000000
C0000000
C0000000
C001FFE0
C001FFE0
C0000060
E0000060
60000060
70000060
38000060
1C000060
0F000060
07E003E0
01FFFFC0
003FFC00
ENDCHAR
STARTCHAR H
ENCODING 72
SWIDTH 949 0
DWIDTH 34 0
BBX 26 24 4 0
BITMAP
C00000C0
C00000C0
C00000C0
C00000C0
C00000C0
C00000C0
C00000C0
C00000C0
C00000C0
C00000C0
FFFFFFC0
FFFFFFC0
C00000C0
C00000C0
C00000C0
C00000C0
C00000C0
C00000C0
C00000C0
C00000C0
C00000C0
C00000C0
C00000C0
C00000C0
ENDCHAR
STARTCHAR I
ENCODING 73
SWIDTH 287 0
DWIDTH 10 0
BBX 2 24 4 0
BITMAP
C0
C0
C0
C0
C0
C0
C0
C0
C0
C0
C0
C0
C0
C0
C0
C0
C0
C0
C0
C0
C0
C0
C0
C0
ENDCHAR
STARTCHAR J
ENCODING 74
SWIDTH 590 0
DWIDTH 21 0
BBX 17 24 0 0
BITMAP
000180
000180
000180
000180
000180
000180
000180
000180
000180
000180
000180
000180
000180
000180
000180
000180
000180
000180
000180
000300
000700
C01E00
FFFC00
3FE000
ENDCHAR
STARTCHAR K
ENCODING 75
SWIDTH 806 0
DWIDTH 29 0
BBX 24 24 4 0
BITMAP
C0001E
C00038
C000E0
C001C0
C00700
C01E00
C03800
C0F000
C3C000
C78000
DE0000
FC0000
DE0000
C78000
C3C000
C0F000
C07800
C01E00
C00F00
C003C0
C001E0
C00078
C0003C
C0000F
ENDCHAR
STARTCHAR L
ENCODING 76
SWIDTH 701 0
DWIDTH 25 0
BBX 20 24 4 0
BITMAP
C00000
C00000
C00000
C00000
C00000
C00000
C00000
C00000
C00000
C00000
C00000
C00000
C00000
C00000
C00000
C00000
C00000
C00000
C00000
C00000
C00000
C00000
FFFFF0
FFFFF0
ENDCHAR
STARTCHAR M
ENCODING 77
SWIDTH 1139 0
DWIDTH 41 0
BBX 33 24 4 0
BITMAP
C000000380
E000000380
F000000780
F000000780
D800000D80
DC00001D80
CC00001980
C600003180
C700007180
C300006180
C18000C180
C1C001C180
C0C0018180
C060030180
C070070180
C030060180
C0180C0180
C01C1C0180
C00C180180
C006300180
C007700180
C003600180
C001E00180
C001C00180
ENDCHAR
STARTCHAR N
ENCODING 78
SWIDTH 936 0
DWIDTH 34 0
BBX 26 24 4 0
BITMAP
E00000C0
F00000C0
F80000C0
DC0000C0
CE0000C0
C70000C0
C38000C0
C1C000C0
C0E000C0
C07000C0
C03800C0
C01C00C0
C00E00C0
C00700C0
C00380C0
C001C0C0
C000E0C0
C00070C0
C00038C0
C0001CC0
C0000EC0
C00007C0
C00003C0
C00001C0
ENDCHAR
STARTCHAR O
ENCODING 79
SWIDTH 983 0
DWIDTH 35 0
BBX 30 24 3 0
BITMAP
003FF000
01FFFE00
07C00F80
0E0001C0
18000060
30000030
70000038
60000018
E000001C
C000000C
C000000C
C000000C
C000000C
C000000C
C000000C
E000001C
60000018
70000038
30000030
18000060
0E0001C0
07C00F80
01FFFE00
003FF000
ENDCHAR
STARTCHAR P
ENCODING 80
SWIDTH 818 0
DWIDTH 29 0
BBX 24 24 4 0
BITMAP
FFFFC0
FFFFF8
C0003C
C0000E
C00006
C00003
C00003
C00003
C00003
C00003
C00006
C0000E
C0003C
FFFFF8
FFFFC0
C00000
C00000
C00000
C00000
C00000
C00000
C00000
C00000
C00000
ENDCHAR
STARTCHAR Q
ENCODING 81
SWIDTH 983 0
DWIDTH 35 0
BBX 33 24 2 0
BITMAP
003FF80000
01FFFF0000
07E00FC000
0E0000E000
1C00007000
3000001800
7000001C00
6000000C00
E000000E00
C000000600
C000000600
C000000600
C000000600
C000000600
C000000600
E000000E00
6000000C00
7000101C00
30003C1800
1C001F7000
0E0007E000
07E007FC00
01FFFF3F80
003FF80300
ENDCHAR
STARTCHAR R
ENCODING 82
SWIDTH 833 0
DWIDTH 30 0
BBX 24 24 4 0
BITMAP
FFFF80
FFFFE0
C000F0
C00018
C0001C
C0000C
C0000C
C0000C
C0000C
C0001C
C00018
C000F8
FFFFE0
FFFF80
C00180
C001C0
C000C0
C00060
C00030
C00038
C0001C
C0000C
C00006
C00007
ENDCHAR
STARTCHAR S
ENCODING 83
SWIDTH 787 0
DWIDTH 28 0
BBX 23 24 3 0
BITMAP
03FFC0
1FFFF8
7C00F8
600008
C00000
C00000
C00000
E00000
700000
3E0000
0FC000
01FE00
001FC0
0001F0
000038
00000C
000006
000006
000006
00000E
80001C
F80078
FFFFF0
1FFF80
ENDCHAR
STARTCHAR T
ENCODING 84
SWIDTH 708 0
DWIDTH 26 0
BBX 24 24 1 0
BITMAP
FFFFFF
FFFFFF
001800
001800
001800
001800
001800
001800
001800
001800
001800
001800
001800
001800
001800
001800
001800
001800
001800
001800
001800
001800
001800
001800
ENDCHAR
STARTCHAR U
ENCODING 85
SWIDTH 891 0
DWIDTH 32 0
BBX 24 24 4 0
BITMAP
C00003
C00003
C00003
C00003
C00003
C00003
C00003
C00003
C00003
C00003
C00003
C00003
C00003
C00003
C00003
C00003
C00003
C00003
E00007
70000E
38001C
1F00F8
0FFFF0
01FF80
ENDCHAR
STARTCHAR V
ENCODING 86
SWIDTH 817 0
DWIDTH 29 0
BBX 27 24 1 0
BITMAP
C0000060
E00000E0
600000C0
70000180
30000180
38000300
18000300
1C000600
0C000600
06000C00
06000C00
03001800
03001800
01803000
01803000
00C06000
00C06000
0060C000
0071C000
00318000
003B8000
001B0000
001F0000
000E0000
ENDCHAR
STARTCHAR W
ENCODING 87
SWIDTH 1266 0
DWIDTH 46 0
BBX 43 24 1 0
BITMAP
E0000E0000E0
60001F0000C0
70001B0001C0
30001B000180
30003B800180
380031800380
180031800300
1C0071C00700
0C0060C00600
0C00E0E00600
0E00C0600E00
0600C0600C00
0701C0701C00
030180301800
030380381800
038300183800
018300183000
01C7001C7000
00C6000C6000
00C6000C6000
00EC0006E000
006C0006C000
007C0007C000
003800038000
ENDCHAR
STARTCHAR X
ENCODING 88
SWIDTH 821 0
DWIDTH 30 0
BBX 27 24 1 0
BITMAP
700001C0
38000380
1C000700
0E000E00
07001C00
03803800
01C07000
00E0E000
0071C000
003B8000
001F0000
000E0000
001F0000
003B8000
0071C000
00E0E000
01C07000
03803800
07001C00
0E000E00
0C000600
18000300
30000180
E00000E0
ENDCHAR
STARTCHAR Y
ENCODING 89
SWIDTH 763 0
DWIDTH 27 0
BBX 24 24 2 0
BITMAP
E00007
60000E
30000C
180018
1C0038
0E0070
0700E0
0300C0
018180
01C380
00E700
007E00
003C00
001800
001800
001800
001800
001800
001800
001800
001800
001800
001800
001800
ENDCHAR
STARTCHAR Z
ENCODING 90
SWIDTH 728 0
DWIDTH 26 0
BBX 21 24 3 0
BITMAP
FFFFF8
FFFFF8
000070
0000E0
0001C0
000180
000300
000600
000E00
001C00
003800
007000
00E000
00C000
018000
038000
070000
0E0000
1C0000
380000
300000
600000
FFFFF8
FFFFF8
ENDCHAR
STARTCHAR bracketleft
ENCODING 91
SWIDTH 409 0
DWIDTH 15 0
BBX 8 28 5 -2
BITMAP
FF
FF
C0
C0
C0
C0
C0
C0
C0
C0
C0
C0
C0
C0
C0
C0
C0
C0
C0
C0
C0
C0
C0
C0
C0
C0
FF
FF
ENDCHAR
STARTCHAR backslash
ENCODING 92
SWIDTH 500 0
DWIDTH 18 0
BBX 14 26 2 -1
BITMAP
C000
6000
6000
3000
3000
1800
1800
1800
0C00
0C00
0600
0600
0300
0300
0180
0180
00C0
00C0
0060
0060
0060
0030
0030
0018
0018
000C
ENDCHAR
STARTCHAR bracketright
ENCODING 93
SWIDTH 409 0
DWIDTH 15 0
BBX 8 28 2 -2
BITMAP
FF
FF
03
03
03
03
03
03
03
03
03
03
03
03
03
03
03
03
03
03
03
03
03
03
03
03
FF
FF
ENDCHAR
STARTCHAR asciicircum
ENCODING 94
SWIDTH 459 0
DWIDTH 17 0
BBX 15 10 1 14
BITMAP
0380
07C0
06C0
0C60
0C60
1830
3018
3018
600C
E00E
ENDCHAR
STARTCHAR underscore
ENCODING 95
SWIDTH 500 0
DWIDTH 18 0
BBX 18 2 0 -4
BITMAP
FFFFC0
FFFFC0
ENDCHAR
STARTCHAR grave
ENCODING 96
SWIDTH 527 0
DWIDTH 19 0
BBX 8 5 3 20
BITMAP
40
F0
3C
0F
03
ENDCHAR
STARTCHAR a
ENCODING 97
SWIDTH 888 0
DWIDTH 32 0
BBX 26 24 2 0
BITMAP
03FFE000
3FFFFC00
3F003E00
30000700
00000180
000000C0
000000C0
000000C0
000000C0
00007FC0
003FFFC0
03FF80C0
0FC000C0
3C0000C0
700000C0
E00000C0
C00000C0
C00000C0
C00000C0
E00001C0
70000FC0
3C00FEC0
1FFFF0C0
03FF00C0
ENDCHAR
STARTCHAR b
ENCODING 98
SWIDTH 836 0
DWIDTH 30 0
BBX 24 24 4 0
BITMAP
FFFFC0
FFFFF0
C00078
C0001C
C0000C
C0000C
C0000C
C0000C
C00018
C00078
FFFFE0
FFFFF0
C0003C
C0000E
C00007
C00003
C00003
C00003
C00003
C00003
C00006
C0001E
FFFFF8
FFFFE0
ENDCHAR
STARTCHAR c
ENCODING 99
SWIDTH 869 0
DWIDTH 31 0
BBX 26 24 3 0
BITMAP
003FF800
01FFFF00
07C00FC0
0E0001C0
1C000040
30000000
70000000
60000000
E0000000
C0000000
C0000000
C0000000
C0000000
C0000000
C0000000
E0000000
60000000
70000000
30000000
1C000040
0E0001C0
07C00FC0
01FFFF80
003FF800
ENDCHAR
STARTCHAR d
ENCODING 100
SWIDTH 910 0
DWIDTH 33 0
BBX 26 24 4 0
BITMAP
FFFF8000
FFFFF000
C0007C00
C0000E00
C0000700
C0000380
C0000180
C0000180
C00000C0
C00000C0
C00000C0
C00000C0
C00000C0
C00000C0
C00000C0
C00000C0
C0000180
C0000180
C0000380
C0000700
C0000E00
C0007C00
FFFFF000
FFFF8000
ENDCHAR
STARTCHAR e
ENCODING 101
SWIDTH 910 0
DWIDTH 33 0
BBX 28 24 2 0
BITMAP
003FE000
01FFFC00
07C01E00
0E000780
1C000180
380000C0
70000060
60000060
E0000060
C0000030
C0000030
FFFFFFF0
FFFFFFF0
C0000000
C0000000
E0000000
60000000
70000000
30000000
1C000000
0E000040
07E007C0
01FFFFC0
003FFE00
ENDCHAR
STARTCHAR f
ENCODING 102
SWIDTH 817 0
DWIDTH 29 0
BBX 23 24 4 0
BITMAP
01FFFE
0FFFFE
3E0000
700000
600000
E00000
C00000
C00000
C00000
C00000
C00000
FFFFFE
FFFFFE
C00000
C00000
C00000
C00000
C00000
C00000
C00000
C00000
C00000
C00000
C00000
ENDCHAR
STARTCHAR g
ENCODING 103
SWIDTH 910 0
DWIDTH 33 0
BBX 27 24 3 0
BITMAP
003FF800
01FFFF80
07E00FC0
0E0001C0
1C000040
30000000
70000000
60000000
E0000000
C0000000
C0000000
C0000000
C001FFE0
C001FFE0
C0000060
E0000060
60000060
70000060
38000060
1C000060
0F000060
07E003E0
01FFFFC0
003FFC00
ENDCHAR
STARTCHAR h
ENCODING 104
SWIDTH 949 0
DWIDTH 34 0
BBX 26 24 4 0
BITMAP
C00000C0
C00000C0
C00000C0
C00000C0
C00000C0
C00000C0
C00000C0
C00000C0
C00000C0
C00000C0
FFFFFFC0
FFFFFFC0
C00000C0
C00000C0
C00000C0
C00000C0
C00000C0
C00000C0
C00000C0
C00000C0
C00000C0
C00000C0
C00000C0
C00000C0
ENDCHAR
STARTCHAR i
ENCODING 105
SWIDTH 287 0
DWIDTH 10 0
BBX 2 24 4 0
BITMAP
C0
C0
C0
C0
C0
C0
C0
C0
C0
C0
C0
C0
C0
C0
C0
C0
C0
C0
C0
C0
C0
C0
C0
C0
ENDCHAR
STARTCHAR j
ENCODING 106
SWIDTH 590 0
DWIDTH 21 0
BBX 17 24 0 0
BITMAP
000180
000180
000180
000180
000180
000180
000180
000180
000180
000180
000180
000180
000180
000180
000180
000180
000180
000180
000180
000300
000700
C01E00
FFFC00
3FE000
ENDCHAR
STARTCHAR k
ENCODING 107
SWIDTH 867 0
DWIDTH 31 0
BBX 25 24 4 0
BITMAP
C0000600
C0000600
C0000E00
C0000C00
C0001C00
C0001800
C0003000
C000E000
C001C000
C0078000
C03E0000
FFF00000
FFFE0000
C01F8000
C001E000
C0007000
C0003C00
C0000C00
C0000600
C0000700
C0000300
C0000380
C0000180
C0000180
ENDCHAR
STARTCHAR l
ENCODING 108
SWIDTH 709 0
DWIDTH 26 0
BBX 21 24 4 0
BITMAP
C00000
C00000
C00000
C00000
C00000
C00000
C00000
C00000
C00000
C00000
C00000
C00000
C00000
C00000
C00000
C00000
C00000
C00000
C00000
E00000
600000
780000
3FFFF8
07FFF8
ENDCHAR
STARTCHAR m
ENCODING 109
SWIDTH 1246 0
DWIDTH 45 0
BBX 36 24 4 0
BITMAP
C0FC007E00
C3FF03FF80
CF038781C0
DC01DE00E0
F000F80060
E000700030
C000600030
C000600030
C000600030
C000600030
C000600030
C000600030
C000600030
C000600030
C000600030
C000600030
C000600030
C000600030
C000600030
C000600030
C000600030
C000600030
C000600030
C000600030
ENDCHAR
STARTCHAR n
ENCODING 110
SWIDTH 933 0
DWIDTH 34 0
BBX 26 24 4 0
BITMAP
C00FF000
C0FFFE00
C3F00F00
CF800380
FC000180
F00000C0
E00000C0
C00000C0
C00000C0
C00000C0
C00000C0
C00000C0
C00000C0
C00000C0
C00000C0
C00000C0
C00000C0
C00000C0
C00000C0
C00000C0
C00000C0
C00000C0
C00000C0
C00000C0
ENDCHAR
STARTCHAR o
ENCODING 111
SWIDTH 983 0
DWIDTH 35 0
BBX 30 24 3 0
BITMAP
003FF000
01FFFE00
07C00F80
0E0001C0
18000060
30000030
70000038
60000018
E000001C
C000000C
C000000C
C000000C
C000000C
C000000C
C000000C
E000001C
60000018
70000038
30000030
18000060
0E0001C0
07C00F80
01FFFE00
003FF000
ENDCHAR
STARTCHAR p
ENCODING 112
SWIDTH 818 0
DWIDTH 29 0
BBX 24 24 4 0
BITMAP
FFFFC0
FFFFF8
C0003C
C0000E
C00006
C00003
C00003
C00003
C00003
C00003
C00006
C0000E
C0003C
FFFFF8
FFFFC0
C00000
C00000
C00000
C00000
C00000
C00000
C00000
C00000
C00000
ENDCHAR
STARTCHAR q
ENCODING 113
SWIDTH 983 0
DWIDTH 35 0
BBX 33 24 2 0
BITMAP
003FF80000
01FFFF0000
07E00FC000
0E0000E000
1C00007000
3000001800
7000001C00
6000000C00
E000000E00
C000000600
C000000600
C000000600
C000000600
C000000600
C000000600
E000000E00
6000000C00
7000001C00
3000001800
1C00007000
0E0000E000
07E007FC00
01FFFF7F80
003FF80300
ENDCHAR
STARTCHAR r
ENCODING 114
SWIDTH 609 0
DWIDTH 22 0
BBX 18 24 4 0
BITMAP
C03FC0
C0FFC0
C3C040
CF0000
DC0000
F00000
E00000
C00000
C00000
C00000
C00000
C00000
C00000
C00000
C00000
C00000
C00000
C00000
C00000
C00000
C00000
C00000
C00000
C00000
ENDCHAR
STARTCHAR s
ENCODING 115
SWIDTH 787 0
DWIDTH 28 0
BBX 23 24 3 0
BITMAP
03FFC0
1FFFF8
7C00F8
600008
C00000
C00000
C00000
E00000
700000
3E0000
0FC000
01FE00
001FC0
0001F0
000038
00000C
000006
000006
000006
00000E
80001C
F80078
FFFFF0
1FFF80
ENDCHAR
STARTCHAR t
ENCODING 116
SWIDTH 708 0
DWIDTH 26 0
BBX 24 24 1 0
BITMAP
FFFFFF
FFFFFF
001800
001800
001800
001800
001800
001800
001800
001800
001800
001800
001800
001800
001800
001800
001800
001800
001800
001800
001800
001800
001800
001800
ENDCHAR
STARTCHAR u
ENCODING 117
SWIDTH 931 0
DWIDTH 34 0
BBX 25 24 4 0
BITMAP
C0000180
C0000180
C0000180
C0000180
C0000180
C0000180
C0000180
C0000180
C0000180
C0000180
C0000180
C0000180
C0000180
C0000180
C0000180
C0000180
C0000180
C0000380
C0000780
60001F80
70007980
3C03E180
1FFF8180
03FC0180
ENDCHAR
STARTCHAR v
ENCODING 118
SWIDTH 817 0
DWIDTH 29 0
BBX 27 24 1 0
BITMAP
C0000060
E00000E0
600000C0
70000180
30000180
38000300
18000300
1C000600
0C000600
06000C00
06000C00
03001800
03001800
01803000
01803000
00C06000
00C06000
0060C000
0071C000
00318000
003B8000
001B0000
001F0000
000E0000
ENDCHAR
STARTCHAR w
ENCODING 119
SWIDTH 1266 0
DWIDTH 46 0
BBX 43 24 1 0
BITMAP
E0000E0000E0
60001F0000C0
70001B0001C0
30001B000180
30003B800180
380031800380
180031800300
1C0071C00700
0C0060C00600
0C00E0E00600
0E00C0600E00
0600C0600C00
0701C0701C00
030180301800
030380381800
038300183800
018300183000
01C7001C7000
00C6000C6000
00C6000C6000
00EC0006E000
006C0006C000
007C0007C000
003800038000
ENDCHAR
STARTCHAR x
ENCODING 120
SWIDTH 821 0
DWIDTH 30 0
BBX 27 24 1 0
BITMAP
700001C0
38000380
1C000700
0E000E00
07001C00
03803800
01C07000
00E0E000
0071C000
003B8000
001F0000
000E0000
001F0000
003B8000
0071C000
00E0E000
01C07000
03803800
07001C00
0E000E00
0C000600
18000300
30000180
E00000E0
ENDCHAR
STARTCHAR y
ENCODING 121
SWIDTH 911 0
DWIDTH 33 0
BBX 25 24 3 0
BITMAP
C0000180
C0000180
C0000180
C0000180
C0000180
C0000180
C0000180
C0000180
C0000380
E0000780
60000F80
70001D80
38003980
1E01F180
0FFFC180
01FE0180
00000180
00000380
00000300
00000F00
80001E00
F800F800
FFFFF000
1FFF0000
ENDCHAR
STARTCHAR z
ENCODING 122
SWIDTH 728 0
DWIDTH 26 0
BBX 21 24 3 0
BITMAP
FFFFF8
FFFFF8
000070
0000E0
0001C0
000180
000300
000600
000E00
001C00
003800
007000
00E000
00C000
018000
038000
070000
0E0000
1C0000
380000
300000
600000
FFFFF8
FFFFF8
ENDCHAR
STARTCHAR braceleft
ENCODING 123
SWIDTH 386 0
DWIDTH 14 0
BBX 11 28 1 -2
BITMAP
03E0
07E0
0600
0C00
0C00
0C00
0C00
0C00
0C00
0C00
0C00
0C00
1800
F000
F000
1800
0C00
0C00
0C00
0C00
0C00
0C00
0C00
0C00
0C00
0600
07E0
03E0
ENDCHAR
STARTCHAR bar
ENCODING 124
SWIDTH 259 0
DWIDTH 9 0
BBX 2 36 4 -8
BITMAP
C0
C0
C0
C0
C0
C0
C0
C0
C0
C0
C0
C0
C0
C0
C0
C0
C0
C0
C0
C0
C0
C0
C0
C0
C0
C0
C0
C0
C0
C0
C0
C0
C0
C0
C0
C0
ENDCHAR
STARTCHAR braceright
ENCODING 125
SWIDTH 386 0
DWIDTH 14 0
BBX 11 28 2 -2
BITMAP
F800
FC00
0C00
0600
0600
0600
0600
0600
0600
0600
0600
0600
0300
01E0
01E0
0300
0600
0600
0600
0600
0600
0600
0600
0600
0600
0C00
FC00
F800
ENDCHAR
STARTCHAR asciitilde
ENCODING 126
SWIDTH 634 0
DWIDTH 23 0
BBX 17 4 3 10
BITMAP
3E0080
FFC180
C1FF80
803E00
ENDCHAR
STARTCHAR nonbreakingspace
ENCODING 160
SWIDTH 375 0
DWIDTH 14 0
BBX 1 1 0 0
BITMAP
00
ENDCHAR
STARTCHAR exclamdown
ENCODING 161
SWIDTH 274 0
DWIDTH 10 0
BBX 3 24 4 0
BITMAP
E0
E0
E0
00
00
00
40
40
40
60
E0
E0
E0
E0
E0
E0
E0
E0
E0
E0
E0
E0
E0
E0
ENDCHAR
STARTCHAR cent
ENCODING 162
SWIDTH 736 0
DWIDTH 27 0
BBX 23 28 2 -2
BITMAP
000C00
000C00
000C00
007FC0
03FFF0
0F8C3C
1C0C0E
380C02
700C00
600C00
E00C00
C00C00
C00C00
C00C00
C00C00
C00C00
C00C00
E00C00
600C00
700C00
380C02
1C0C06
0F8C3C
03FFF0
007FC0
000C00
000C00
000C00
ENDCHAR
STARTCHAR sterling
ENCODING 163
SWIDTH 792 0
DWIDTH 29 0
BBX 24 24 2 0
BITMAP
001FF8
007FFE
01E01E
038002
030000
070000
060000
060000
060000
060000
060000
FFFFE0
FFFFE0
060000
060000
060000
060000
060000
060000
0E0000
1C0000
3FF803
FFFFFF
E00FFF
ENDCHAR
STARTCHAR currency
ENCODING 164
SWIDTH 560 0
DWIDTH 20 0
BBX 15 16 3 5
BITMAP
8004
C006
E7CE
7FFC
3C78
3018
701C
600C
600C
600C
600C
3018
3838
7FFC
E7CE
C006
ENDCHAR
STARTCHAR yen
ENCODING 165
SWIDTH 811 0
DWIDTH 29 0
BBX 24 24 3 0
BITMAP
E00007
70000E
30000C
180018
1C0038
0E0070
0700E0
0300C0
018180
00C300
7FE7FE
7FFFFE
003C00
001800
001800
7FFFFE
7FFFFE
001800
001800
001800
001800
001800
001800
001800
ENDCHAR
STARTCHAR brokenbar
ENCODING 166
SWIDTH 259 0
DWIDTH 9 0
BBX 2 31 4 -6
BITMAP
C0
C0
C0
C0
C0
C0
C0
C0
C0
C0
C0
C0
C0
00
00
00
00
00
C0
C0
C0
C0
C0
C0
C0
C0
C0
C0
C0
C0
C0
ENDCHAR
STARTCHAR section
ENCODING 167
SWIDTH 500 0
DWIDTH 18 0
BBX 14 24 2 0
BITMAP
0FF0
3FF0
7030
6000
6000
7000
3C00
1F00
77E0
60F0
C038
C01C
E00C
700C
3C1C
1F38
03F0
00F0
0030
0018
0018
6038
7FF0
1FC0
ENDCHAR
STARTCHAR dieresis
ENCODING 168
SWIDTH 527 0
DWIDTH 19 0
BBX 10 3 5 20
BITMAP
E1C0
E1C0
E1C0
ENDCHAR
STARTCHAR copyright
ENCODING 169
SWIDTH 770 0
DWIDTH 28 0
BBX 24 24 2 0
BITMAP
007E00
03FFC0
0781E0
0E0070
187F18
30FF8C
71C18E
630006
670006
C60003
C60003
C60003
C60003
C60003
C70003
630006
61C086
70FF8E
307F0C
180018
0E0070
0781E0
03FFC0
00FE00
ENDCHAR
STARTCHAR ordfeminine
ENCODING 170
SWIDTH 497 0
DWIDTH 18 0
BBX 15 16 1 8
BITMAP
1FF0
7FFC
600E
0006
01FE
1FFE
7C06
E006
C006
E03E
7FFE
3FE6
0000
0000
7FFE
7FFE
ENDCHAR
STARTCHAR guillemotleft
ENCODING 171
SWIDTH 440 0
DWIDTH 16 0
BBX 13 13 1 6
BITMAP
0410
0E38
1C70
38E0
71C0
E380
C300
E380
71C0
38E0
1C70
0E38
0410
ENDCHAR
STARTCHAR logicalnot
ENCODING 172
SWIDTH 634 0
DWIDTH 23 0
BBX 17 8 3 8
BITMAP
FFFF80
FFFF80
000180
000180
000180
000180
000180
000180
ENDCHAR
STARTCHAR uni00AD
ENCODING 173
SWIDTH 540 0
DWIDTH 19 0
BBX 14 2 3 11
BITMAP
FFFC
FFFC
ENDCHAR
STARTCHAR registered
ENCODING 174
SWIDTH 600 0
DWIDTH 22 0
BBX 18 18 2 6
BITMAP
03F000
0C0C00
100200
200100
47E080
463080
863040
863040
867040
87E040
862040
862040
461080
461880
200100
100200
0C0C00
03F000
ENDCHAR
STARTCHAR macron
ENCODING 175
SWIDTH 527 0
DWIDTH 19 0
BBX 10 2 5 21
BITMAP
FFC0
FFC0
ENDCHAR
STARTCHAR degree
ENCODING 176
SWIDTH 373 0
DWIDTH 13 0
BBX 9 9 2 15
BITMAP
3E00
7F00
E380
C180
C180
C180
E380
7F00
3E00
ENDCHAR
STARTCHAR plusminus
ENCODING 177
SWIDTH 634 0
DWIDTH 23 0
BBX 16 20 3 2
BITMAP
0180
0180
0180
0180
0180
0180
0180
FFFF
FFFF
0180
0180
0180
0180
0180
0180
0000
0000
0000
FFFF
FFFF
ENDCHAR
STARTCHAR twosuperior
ENCODING 178
SWIDTH 511 0
DWIDTH 18 0
BBX 15 15 1 9
BITMAP
3FE0
FFF8
C03C
000E
0006
0006
000C
001C
0030
00E0
0380
0E00
3800
FFFE
FFFE
ENDCHAR
STARTCHAR threesuperior
ENCODING 179
SWIDTH 512 0
DWIDTH 18 0
BBX 15 16 1 8
BITMAP
3FE0
FFF8
C03C
000C
000C
001C
0078
07E0
07F0
003C
0006
0006
0006
C01C
FFF8
3FE0
ENDCHAR
STARTCHAR acute
ENCODING 180
SWIDTH 527 0
DWIDTH 19 0
BBX 8 5 7 20
BITMAP
02
0F
3C
F0
C0
ENDCHAR
STARTCHAR micro
ENCODING 181
SWIDTH 705 0
DWIDTH 25 0
BBX 21 24 1 -7
BITMAP
060018
060018
0E0038
0C0030
0C0030
0C0030
0C0030
0C0030
180060
180060
180060
1800E0
1801E0
3C0360
360E60
33FC60
31F030
300000
600000
600000
600000
600000
600000
C00000
ENDCHAR
STARTCHAR paragraph
ENCODING 182
SWIDTH 585 0
DWIDTH 21 0
BBX 15 24 2 0
BITMAP
07FE
1FC6
3FC6
7FC6
FFC6
FFC6
FFC6
FFC6
FFC6
FFC6
7FC6
3FC6
1FC6
07C6
00C6
00C6
00C6
00C6
00C6
00C6
00C6
00C6
00C6
00C6
ENDCHAR
STARTCHAR periodcentered
ENCODING 183
SWIDTH 185 0
DWIDTH 7 0
BBX 3 4 2 10
BITMAP
E0
E0
E0
E0
ENDCHAR
STARTCHAR cedilla
ENCODING 184
SWIDTH 527 0
DWIDTH 19 0
BBX 8 7 6 -7
BITMAP
18
30
3E
03
03
FF
FE
ENDCHAR
STARTCHAR onesuperior
ENCODING 185
SWIDTH 261 0
DWIDTH 9 0
BBX 6 15 0 9
BITMAP
3C
FC
CC
0C
0C
0C
0C
0C
0C
0C
0C
0C
0C
0C
0C
ENDCHAR
STARTCHAR ordmasculine
ENCODING 186
SWIDTH 520 0
DWIDTH 19 0
BBX 17 16 1 8
BITMAP
07F000
1FFC00
780F00
600300
C00180
C00180
C00180
C00180
600300
780F00
1FFC00
07F000
000000
000000
7FFF00
7FFF00
ENDCHAR
STARTCHAR guillemotright
ENCODING 187
SWIDTH 440 0
DWIDTH 16 0
BBX 13 13 1 6
BITMAP
4100
E380
71C0
38E0
1C70
0E38
0618
0E38
1C70
38E0
71C0
E380
4100
ENDCHAR
STARTCHAR onequarter
ENCODING 188
SWIDTH 857 0
DWIDTH 31 0
BBX 28 24 1 0
BITMAP
3C000300
FC000600
CC000C00
0C001800
0C003000
0C006000
0C006000
0C00C000
0C018000
0C030000
0C060000
0C0C0380
0C0C0780
00180D80
00301980
00603180
00C06180
0180C180
01818180
0303FFF0
0603FFF0
0C000180
18000180
30000180
ENDCHAR
STARTCHAR onehalf
ENCODING 189
SWIDTH 937 0
DWIDTH 34 0
BBX 30 24 1 0
BITMAP
3C000300
FC000600
CC000C00
0C001800
0C003000
0C006000
0C006000
0C00C000
0C018000
0C030000
0C060000
0C0C0FE0
0C0C3FF8
0018303C
0030000C
0060000C
00C0000C
01800018
01800070
030000C0
06000380
0C000E00
18003FFC
30003FFC
ENDCHAR
STARTCHAR threequarters
ENCODING 190
SWIDTH 978 0
DWIDTH 35 0
BBX 31 24 2 0
BITMAP
3F800060
FFE000C0
C0700180
00300300
00600600
0FC00C00
0FC00C00
00E01800
00303000
00306000
8030C000
C0E18070
7F8180F0
000301B0
00060330
000C0630
00180C30
00301830
00303030
00607FFE
00C07FFE
01800030
03000030
06000030
ENDCHAR
STARTCHAR questiondown
ENCODING 191
SWIDTH 568 0
DWIDTH 20 0
BBX 16 24 2 0
BITMAP
0038
0038
0038
0000
0000
0000
0018
0018
0018
0078
03F8
0F80
1C00
7000
6000
C000
C000
C000
C000
E000
7001
3C07
1FFF
07FC
ENDCHAR
STARTCHAR Agrave
ENCODING 192
SWIDTH 812 0
DWIDTH 29 0
BBX 27 31 1 0
BITMAP
00800000
01E00000
00780000
001E0000
00060000
00000000
00000000
000E0000
001F0000
001B0000
003B8000
00318000
0071C000
0060C000
00E0E000
00C06000
01C07000
01803000
03803800
03001800
07001C00
06000C00
0E000E00
1FFFFE00
1FFFFF00
38000380
30000180
700001C0
600000C0
E00000E0
C0000060
ENDCHAR
STARTCHAR Aacute
ENCODING 193
SWIDTH 812 0
DWIDTH 29 0
BBX 27 31 1 0
BITMAP
00006000
0001E000
0007C000
001E0000
00080000
00000000
00000000
000E0000
001F0000
001B0000
003B8000
00318000
0071C000
0060C000
00E0E000
00C06000
01C07000
01803000
03803800
03001800
07001C00
06000C00
0E000E00
1FFFFE00
1FFFFF00
38000380
30000180
700001C0
600000C0
E00000E0
C0000060
ENDCHAR
STARTCHAR Acircumflex
ENCODING 194
SWIDTH 812 0
DWIDTH 29 0
BBX 27 31 1 0
BITMAP
00060000
001F8000
007DE000
00E07800
01801800
00000000
00000000
000E0000
001F0000
001B0000
003B8000
00318000
0071C000
0060C000
00E0E000
00C06000
01C07000
01803000
03803800
03001800
07001C00
06000C00
0E000E00
1FFFFE00
1FFFFF00
38000380
30000180
700001C0
600000C0
E00000E0
C0000060
ENDCHAR
STARTCHAR Atilde
ENCODING 195
SWIDTH 812 0
DWIDTH 29 0
BBX 27 30 1 0
BITMAP
00706000
00FC6000
01CFE000
0183C000
00000000
00000000
000E0000
001F0000
001B0000
003B8000
00318000
0071C000
0060C000
00E0E000
00C06000
01C07000
01803000
03803800
03001800
07001C00
06000C00
0E000E00
1FFFFE00
1FFFFF00
38000380
30000180
700001C0
600000C0
E00000E0
C0000060
ENDCHAR
STARTCHAR Adieresis
ENCODING 196
SWIDTH 812 0
DWIDTH 29 0
BBX 27 29 1 0
BITMAP
0070E000
0070E000
0070E000
00000000
00000000
000E0000
001F0000
001B0000
003B8000
00318000
0071C000
0060C000
00E0E000
00C06000
01C07000
01803000
03803800
03001800
07001C00
06000C00
0E000E00
1FFFFE00
1FFFFF00
38000380
30000180
700001C0
600000C0
E00000E0
C0000060
ENDCHAR
STARTCHAR Aring
ENCODING 197
SWIDTH 812 0
DWIDTH 29 0
BBX 27 33 1 0
BITMAP
001F0000
003F8000
0071C000
0060C000
0071C000
003F8000
001F0000
00000000
00000000
000E0000
001F0000
001B0000
003B8000
00318000
0071C000
0060C000
00E0E000
00C06000
01C07000
01803000
03803800
03001800
07001C00
06000C00
0E000E00
1FFFFE00
1FFFFF00
38000380
30000180
700001C0
600000C0
E00000E0
C0000060
ENDCHAR
STARTCHAR AE
ENCODING 198
SWIDTH 1172 0
DWIDTH 42 0
BBX 39 24 0 0
BITMAP
0000FFFFFE
0001FFFFFE
0001980000
0003180000
0007180000
000E180000
000C180000
001C180000
0038180000
0038180000
00701FFFFC
00E01FFFFC
00E0180000
01C0180000
0380180000
0380180000
07FFF80000
0FFFF80000
0E00180000
1C00180000
3800180000
3800180000
70001FFFFE
E0001FFFFE
ENDCHAR
STARTCHAR Ccedilla
ENCODING 199
SWIDTH 869 0
DWIDTH 31 0
BBX 26 31 3 -7
BITMAP
003FF800
01FFFF00
07C00FC0
0E0001C0
1C000040
30000000
70000000
60000000
E0000000
C0000000
C0000000
C0000000
C0000000
C0000000
C0000000
E0000000
60000000
70000000
30000000
1C000040
0E0001C0
07C00FC0
01FFFF80
003FF800
00060000
000E0000
000F8000
0000C000
0000C000
003FC000
003F8000
ENDCHAR
STARTCHAR Egrave
ENCODING 200
SWIDTH 754 0
DWIDTH 27 0
BBX 20 31 4 0
BITMAP
080000
0E0000
178000
01E000
002000
000000
000000
FFFFF0
FFFFF0
C00000
C00000
C00000
C00000
C00000
C00000
C00000
C00000
FFFFE0
FFFFE0
C00000
C00000
C00000
C00000
C00000
C00000
C00000
C00000
C00000
C00000
FFFFF0
FFFFF0
ENDCHAR
STARTCHAR Eacute
ENCODING 201
SWIDTH 754 0
DWIDTH 27 0
BBX 20 31 4 0
BITMAP
000200
000E00
003C00
00F000
018000
000000
000000
FFFFF0
FFFFF0
C00000
C00000
C00000
C00000
C00000
C00000
C00000
C00000
FFFFE0
FFFFE0
C00000
C00000
C00000
C00000
C00000
C00000
C00000
C00000
C00000
C00000
FFFFF0
FFFFF0
ENDCHAR
STARTCHAR Ecircumflex
ENCODING 202
SWIDTH 754 0
DWIDTH 27 0
BBX 20 31 4 0
BITMAP
006000
00F800
03DE00
0F0780
180080
000000
000000
FFFFF0
FFFFF0
C00000
C00000
C00000
C00000
C00000
C00000
C00000
C00000
FFFFE0
FFFFE0
C00000
C00000
C00000
C00000
C00000
C00000
C00000
C00000
C00000
C00000
FFFFF0
FFFFF0
ENDCHAR
STARTCHAR Edieresis
ENCODING 203
SWIDTH 754 0
DWIDTH 27 0
BBX 20 29 4 0
BITMAP
070E00
070E00
070E00
000000
000000
FFFFF0
FFFFF0
C00000
C00000
C00000
C00000
C00000
C00000
C00000
C00000
FFFFE0
FFFFE0
C00000
C00000
C00000
C00000
C00000
C00000
C00000
C00000
C00000
C00000
FFFFF0
FFFFF0
ENDCHAR
STARTCHAR Igrave
ENCODING 204
SWIDTH 287 0
DWIDTH 10 0
BBX 8 31 -1 0
BITMAP
C0
E0
78
0E
03
00
00
06
06
06
06
06
06
06
06
06
06
06
06
06
06
06
06
06
06
06
06
06
06
06
06
ENDCHAR
STARTCHAR Iacute
ENCODING 205
SWIDTH 287 0
DWIDTH 10 0
BBX 8 31 3 0
BITMAP
02
0F
3C
F0
80
00
00
60
60
60
60
60
60
60
60
60
60
60
60
60
60
60
60
60
60
60
60
60
60
60
60
ENDCHAR
STARTCHAR Icircumflex
ENCODING 206
SWIDTH 287 0
DWIDTH 10 0
BBX 14 31 -1 0
BITMAP
0300
0F80
3DE0
F078
C00C
0000
0000
0600
0600
0600
0600
0600
0600
0600
0600
0600
0600
0600
0600
0600
0600
0600
0600
0600
0600
0600
0600
0600
0600
0600
0600
ENDCHAR
STARTCHAR Idieresis
ENCODING 207
SWIDTH 287 0
DWIDTH 10 0
BBX 10 29 1 0
BITMAP
E1C0
E1C0
E1C0
0000
0000
1800
1800
1800
1800
1800
1800
1800
1800
1800
1800
1800
1800
1800
1800
1800
1800
1800
1800
1800
1800
1800
1800
1800
1800
ENDCHAR
STARTCHAR Eth
ENCODING 208
SWIDTH 910 0
DWIDTH 33 0
BBX 30 24 0 0
BITMAP
0FFFF800
0FFFFF00
0C000FC0
0C0001E0
0C000070
0C000038
0C000018
0C000018
0C00000C
0C00000C
0C00000C
FFFF000C
FFFF000C
0C00000C
0C00000C
0C00000C
0C000018
0C000018
0C000038
0C000070
0C0000E0
0C0007C0
0FFFFF00
0FFFF800
ENDCHAR
STARTCHAR Ntilde
ENCODING 209
SWIDTH 936 0
DWIDTH 34 0
BBX 26 30 4 0
BITMAP
00E0C000
01F8C000
019FC000
03078000
00000000
00000000
E00000C0
F00000C0
F80000C0
DC0000C0
CE0000C0
C70000C0
C38000C0
C1C000C0
C0E000C0
C07000C0
C03800C0
C01C00C0
C00E00C0
C00700C0
C00380C0
C001C0C0
C000E0C0
C00070C0
C00038C0
C0001CC0
C0000EC0
C00007C0
C00003C0
C00001C0
ENDCHAR
STARTCHAR Ograve
ENCODING 210
SWIDTH 983 0
DWIDTH 35 0
BBX 30 31 3 0
BITMAP
00400000
00F00000
003C0000
000F0000
00030000
00000000
00000000
003FF000
01FFFE00
07C00F80
0E0001C0
18000060
30000030
70000038
60000018
E000001C
C000000C
C000000C
C000000C
C000000C
C000000C
C000000C
E000001C
60000018
70000038
30000030
18000060
0E0001C0
07C00F80
01FFFE00
003FF000
ENDCHAR
STARTCHAR Oacute
ENCODING 211
SWIDTH 983 0
DWIDTH 35 0
BBX 30 31 3 0
BITMAP
00003000
0000F000
0003E000
00070000
000C0000
00000000
00000000
003FF000
01FFFE00
07C00F80
0E0001C0
18000060
30000030
70000038
60000018
E000001C
C000000C
C000000C
C000000C
C000000C
C000000C
C000000C
E000001C
60000018
70000038
30000030
18000060
0E0001C0
07C00F80
01FFFE00
003FF000
ENDCHAR
STARTCHAR Ocircumflex
ENCODING 212
SWIDTH 983 0
DWIDTH 35 0
BBX 30 31 3 0
BITMAP
00030000
000FC000
001EF000
00783C00
00C00C00
00000000
00000000
003FF000
01FFFE00
07C00F80
0E0001C0
18000060
30000030
70000038
60000018
E000001C
C000000C
C000000C
C000000C
C000000C
C000000C
C000000C
E000001C
60000018
70000038
30000030
18000060
0E0001C0
07C00F80
01FFFE00
003FF000
ENDCHAR
STARTCHAR Otilde
ENCODING 213
SWIDTH 983 0
DWIDTH 35 0
BBX 30 30 3 0
BITMAP
00383000
007E3000
00E7F000
00C1E000
00000000
00000000
003FF000
01FFFE00
07C00F80
0E0001C0
18000060
30000030
70000038
60000018
E000001C
C000000C
C000000C
C000000C
C000000C
C000000C
C000000C
E000001C
60000018
70000038
30000030
18000060
0E0001C0
07C00F80
01FFFE00
003FF000
ENDCHAR
STARTCHAR Odieresis
ENCODING 214
SWIDTH 983 0
DWIDTH 35 0
BBX 30 29 3 0
BITMAP
00387000
00387000
00387000
00000000
00000000
003FF000
01FFFE00
07C00F80
0E0001C0
18000060
30000030
70000038
60000018
E000001C
C000000C
C000000C
C000000C
C000000C
C000000C
C000000C
E000001C
60000018
70000038
30000030
18000060
0E0001C0
07C00F80
01FFFE00
003FF000
ENDCHAR
STARTCHAR multiply
ENCODING 215
SWIDTH 634 0
DWIDTH 23 0
BBX 15 15 4 5
BITMAP
4004
E00E
701C
3838
1C70
0EE0
07C0
0380
07C0
0EE0
1C70
3838
701C
E00E
4004
ENDCHAR
STARTCHAR Oslash
ENCODING 216
SWIDTH 983 0
DWIDTH 35 0
BBX 31 30 2 -3
BITMAP
00000030
00000060
000000C0
003FF980
01FFFF80
07E007C0
0E0006E0
1C000E70
30001C18
7000181C
6000300C
E000600E
C000E006
C000C006
C0018006
C0030006
C0070006
C00E0006
E00C000E
6018000C
7030001C
30700018
1CE00070
0EC000E0
07C007C0
03FFFF00
033FF800
06000000
0C000000
18000000
ENDCHAR
STARTCHAR Ugrave
ENCODING 217
SWIDTH 891 0
DWIDTH 32 0
BBX 24 31 4 0
BITMAP
020000
038000
01E000
007800
000C00
000000
000000
C00003
C00003
C00003
C00003
C00003
C00003
C00003
C00003
C00003
C00003
C00003
C00003
C00003
C00003
C00003
C00003
C00003
C00003
E00007
70000E
38001C
1F00F8
0FFFF0
01FF80
ENDCHAR
STARTCHAR Uacute
ENCODING 218
SWIDTH 891 0
DWIDTH 32 0
BBX 24 31 4 0
BITMAP
000080
000380
000F40
003C00
002000
000000
000000
C00003
C00003
C00003
C00003
C00003
C00003
C00003
C00003
C00003
C00003
C00003
C00003
C00003
C00003
C00003
C00003
C00003
C00003
E00007
70000E
38001C
1F00F8
0FFFF0
01FF80
ENDCHAR
STARTCHAR Ucircumflex
ENCODING 219
SWIDTH 891 0
DWIDTH 32 0
BBX 24 31 4 0
BITMAP
000C00
003E00
00F780
03C1E0
020030
000000
000000
C00003
C00003
C00003
C00003
C00003
C00003
C00003
C00003
C00003
C00003
C00003
C00003
C00003
C00003
C00003
C00003
C00003
C00003
E00007
70000E
38001C
1F00F8
0FFFF0
01FF80
ENDCHAR
STARTCHAR Udieresis
ENCODING 220
SWIDTH 891 0
DWIDTH 32 0
BBX 24 29 4 0
BITMAP
00E1C0
00E1C0
00E1C0
000000
000000
C00003
C00003
C00003
C00003
C00003
C00003
C00003
C00003
C00003
C00003
C00003
C00003
C00003
C00003
C00003
C00003
C00003
C00003
E00007
70000E
38001C
1F00F8
0FFFF0
01FF80
ENDCHAR
STARTCHAR Yacute
ENCODING 221
SWIDTH 763 0
DWIDTH 27 0
BBX 24 31 2 0
BITMAP
000180
000780
001F00
003800
006000
000000
000000
E00007
60000E
30000C
180018
1C0038
0E0070
0700E0
0300C0
018180
01C380
00E700
007E00
003C00
001800
001800
001800
001800
001800
001800
001800
001800
001800
001800
001800
ENDCHAR
STARTCHAR Thorn
ENCODING 222
SWIDTH 787 0
DWIDTH 28 0
BBX 22 24 4 0
BITMAP
C00000
C00000
C00000
C00000
FFFF00
FFFFE0
C000F0
C00038
C0001C
C0000C
C0000C
C0000C
C0000C
C0000C
C0001C
C00038
C000F0
FFFFE0
FFFF00
C00000
C00000
C00000
C00000
C00000
ENDCHAR
STARTCHAR germandbls
ENCODING 223
SWIDTH 863 0
DWIDTH 31 0
BBX 26 24 3 0
BITMAP
01FF8000
07FFF800
1F007C00
38000E00
70000700
E0000300
C0000300
C0000300
C0000600
C0003C00
C0FFF000
C0FFF800
C0003E00
C0000780
C0000180
C00001C0
C00000C0
C00000C0
C00000C0
C0000180
C2000380
C3E01F00
C3FFFC00
C07FF000
ENDCHAR
STARTCHAR agrave
ENCODING 224
SWIDTH 888 0
DWIDTH 32 0
BBX 26 31 2 0
BITMAP
00800000
01E00000
00780000
001E0000
00060000
00000000
00000000
03FFE000
3FFFFC00
3F003E00
30000700
00000180
000000C0
000000C0
000000C0
000000C0
00007FC0
003FFFC0
03FF80C0
0FC000C0
3C0000C0
700000C0
E00000C0
C00000C0
C00000C0
C00000C0
E00001C0
70000FC0
3C00FEC0
1FFFF0C0
03FF00C0
ENDCHAR
STARTCHAR aacute
ENCODING 225
SWIDTH 888 0
DWIDTH 32 0
BBX 26 31 2 0
BITMAP
00006000
0000E000
0003C000
000E0000
00180000
00000000
00000000
03FFE000
3FFFFC00
3F003E00
30000700
00000180
000000C0
000000C0
000000C0
000000C0
00007FC0
003FFFC0
03FF80C0
0FC000C0
3C0000C0
700000C0
E00000C0
C00000C0
C00000C0
C00000C0
E00001C0
70000FC0
3C00FEC0
1FFFF0C0
03FF00C0
ENDCHAR
STARTCHAR acircumflex
ENCODING 226
SWIDTH 888 0
DWIDTH 32 0
BBX 26 31 2 0
BITMAP
00060000
000F8000
003DE000
00F07800
01801800
00000000
00000000
03FFE000
3FFFFC00
3F003E00
30000700
00000180
000000C0
000000C0
000000C0
000000C0
00007FC0
003FFFC0
03FF80C0
0FC000C0
3C0000C0
700000C0
E00000C0
C00000C0
C00000C0
C00000C0
E00001C0
70000FC0
3C00FEC0
1FFFF0C0
03FF00C0
ENDCHAR
STARTCHAR atilde
ENCODING 227
SWIDTH 888 0
DWIDTH 32 0
BBX 26 30 2 0
BITMAP
00706000
00FC6000
00CFE000
0183C000
00000000
00000000
03FFE000
3FFFFC00
3F003E00
30000700
00000180
000000C0
000000C0
000000C0
000000C0
00007FC0
003FFFC0
03FF80C0
0FC000C0
3C0000C0
700000C0
E00000C0
C00000C0
C00000C0
C00000C0
E00001C0
70000FC0
3C00FEC0
1FFFF0C0
03FF00C0
ENDCHAR
STARTCHAR adieresis
ENCODING 228
SWIDTH 888 0
DWIDTH 32 0
BBX 26 29 2 0
BITMAP
0070E000
0070E000
0070E000
00000000
00000000
03FFE000
3FFFFC00
3F003E00
30000700
00000180
000000C0
000000C0
000000C0
000000C0
00007FC0
003FFFC0
03FF80C0
0FC000C0
3C0000C0
700000C0
E00000C0
C00000C0
C00000C0
C00000C0
E00001C0
70000FC0
3C00FEC0
1FFFF0C0
03FF00C0
ENDCHAR
STARTCHAR aring
ENCODING 229
SWIDTH 888 0
DWIDTH 32 0
BBX 26 33 2 0
BITMAP
001F0000
003F8000
0071C000
0060C000
0071C000
003F8000
001F0000
00000000
00000000
03FFE000
3FFFFC00
3F003E00
30000700
00000180
000000C0
000000C0
000000C0
000000C0
00007FC0
003FFFC0
03FF80C0
0FC000C0
3C0000C0
700000C0
E00000C0
C00000C0
C00000C0
C00000C0
E00001C0
70000FC0
3C00FEC0
1FFFF0C0
03FF00C0
ENDCHAR
STARTCHAR ae
ENCODING 230
SWIDTH 1551 0
DWIDTH 56 0
BBX 52 24 2 0
BITMAP
03FFE0003FE000
3FFFFC01FFFC00
3F003F07C01E00
3000078E000780
0000019C000180
000000F80000C0
000000F0000060
000000E0000060
000000E0000060
00007FC0000030
003FFFC0000030
03FF80FFFFFFF0
0FC000FFFFFFF0
3C0000C0000000
700000C0000000
E00000E0000000
C0000060000000
C0000070000000
C0000070000000
E00001FC000000
70000F8E000040
3C00FE07E007C0
1FFFF001FFFFC0
07FF00003FFE00
ENDCHAR
STARTCHAR ccedilla
ENCODING 231
SWIDTH 869 0
DWIDTH 31 0
BBX 26 31 3 -7
BITMAP
003FF800
01FFFF00
07C00FC0
0E0001C0
1C000040
30000000
70000000
60000000
E0000000
C0000000
C0000000
C0000000
C0000000
C0000000
C0000000
E0000000
60000000
70000000
30000000
1C000040
0E0001C0
07C00FC0
01FFFF80
003FF800
00060000
000E0000
000F8000
0000C000
0000C000
003FC000
003F8000
ENDCHAR
STARTCHAR egrave
ENCODING 232
SWIDTH 910 0
DWIDTH 33 0
BBX 28 31 2 0
BITMAP
00400000
00F00000
003C0000
000F0000
00030000
00000000
00000000
003FE000
01FFFC00
07C01E00
0E000780
1C000180
380000C0
70000060
60000060
E0000060
C0000030
C0000030
FFFFFFF0
FFFFFFF0
C0000000
C0000000
E0000000
60000000
70000000
30000000
1C000000
0E000040
07E007C0
01FFFFC0
003FFE00
ENDCHAR
STARTCHAR eacute
ENCODING 233
SWIDTH 910 0
DWIDTH 33 0
BBX 28 31 2 0
BITMAP
00002000
0000F000
0003C000
000F0000
000C0000
00000000
00000000
003FE000
01FFFC00
07C01E00
0E000780
1C000180
380000C0
70000060
60000060
E0000060
C0000030
C0000030
FFFFFFF0
FFFFFFF0
C0000000
C0000000
E0000000
60000000
70000000
30000000
1C000000
0E000040
07E007C0
01FFFFC0
003FFE00
ENDCHAR
STARTCHAR ecircumflex
ENCODING 234
SWIDTH 910 0
DWIDTH 33 0
BBX 28 31 2 0
BITMAP
00030000
000FC000
003FF000
00F03C00
00C00C00
00000000
00000000
003FE000
01FFFC00
07C01E00
0E000780
1C000180
380000C0
70000060
60000060
E0000060
C0000030
C0000030
FFFFFFF0
FFFFFFF0
C0000000
C0000000
E0000000
60000000
70000000
30000000
1C000000
0E000040
07E007C0
01FFFFC0
003FFE00
ENDCHAR
STARTCHAR edieresis
ENCODING 235
SWIDTH 910 0
DWIDTH 33 0
BBX 28 29 2 0
BITMAP
00387000
00387000
00387000
00000000
00000000
003FE000
01FFFC00
07C01E00
0E000780
1C000180
380000C0
70000060
60000060
E0000060
C0000030
C0000030
FFFFFFF0
FFFFFFF0
C0000000
C0000000
E0000000
60000000
70000000
30000000
1C000000
0E000040
07E007C0
01FFFFC0
003FFE00
ENDCHAR
STARTCHAR igrave
ENCODING 236
SWIDTH 287 0
DWIDTH 10 0
BBX 8 31 -1 0
BITMAP
C0
F0
78
0E
03
00
00
06
06
06
06
06
06
06
06
06
06
06
06
06
06
06
06
06
06
06
06
06
06
06
06
ENDCHAR
STARTCHAR iacute
ENCODING 237
SWIDTH 287 0
DWIDTH 10 0
BBX 8 31 3 0
BITMAP
02
0F
3C
F0
C0
00
00
60
60
60
60
60
60
60
60
60
60
60
60
60
60
60
60
60
60
60
60
60
60
60
60
ENDCHAR
STARTCHAR icircumflex
ENCODING 238
SWIDTH 287 0
DWIDTH 10 0
BBX 14 31 -1 0
BITMAP
0300
0FC0
3DE0
F078
C00C
0000
0000
0600
0600
0600
0600
0600
0600
0600
0600
0600
0600
0600
0600
0600
0600
0600
0600
0600
0600
0600
0600
0600
0600
0600
0600
ENDCHAR
STARTCHAR idieresis
ENCODING 239
SWIDTH 287 0
DWIDTH 10 0
BBX 10 29 1 0
BITMAP
E1C0
E1C0
E1C0
0000
0000
1800
1800
1800
1800
1800
1800
1800
1800
1800
1800
1800
1800
1800
1800
1800
1800
1800
1800
1800
1800
1800
1800
1800
1800
ENDCHAR
STARTCHAR eth
ENCODING 240
SWIDTH 910 0
DWIDTH 33 0
BBX 30 24 0 0
BITMAP
0FFFF800
0FFFFF00
0C000FC0
0C0001E0
0C000070
0C000038
0C000018
0C000018
0C00000C
0C00000C
0C00000C
FFFF000C
FFFF000C
0C00000C
0C00000C
0C00000C
0C000018
0C000018
0C000038
0C000070
0C0000E0
0C0007C0
0FFFFF00
0FFFF800
ENDCHAR
STARTCHAR ntilde
ENCODING 241
SWIDTH 933 0
DWIDTH 34 0
BBX 26 30 4 0
BITMAP
01E0C000
01F8C000
031F8000
03078000
00000000
00000000
C00FF000
C0FFFE00
C3F00F00
CF800380
FC000180
F00000C0
E00000C0
C00000C0
C00000C0
C00000C0
C00000C0
C00000C0
C00000C0
C00000C0
C00000C0
C00000C0
C00000C0
C00000C0
C00000C0
C00000C0
C00000C0
C00000C0
C00000C0
C00000C0
ENDCHAR
STARTCHAR ograve
ENCODING 242
SWIDTH 983 0
DWIDTH 35 0
BBX 30 31 3 0
BITMAP
00400000
00F00000
003C0000
000F0000
00030000
00000000
00000000
003FF000
01FFFE00
07C00F80
0E0001C0
18000060
30000030
70000038
60000018
E000001C
C000000C
C000000C
C000000C
C000000C
C000000C
C000000C
E000001C
60000018
70000038
30000030
18000060
0E0001C0
07C00F80
01FFFE00
003FF000
ENDCHAR
STARTCHAR oacute
ENCODING 243
SWIDTH 983 0
DWIDTH 35 0
BBX 30 31 3 0
BITMAP
00003000
0000F000
0003E000
00070000
000C0000
00000000
00000000
003FF000
01FFFE00
07C00F80
0E0001C0
18000060
30000030
70000038
60000018
E000001C
C000000C
C000000C
C000000C
C000000C
C000000C
C000000C
E000001C
60000018
70000038
30000030
18000060
0E0001C0
07C00F80
01FFFE00
003FF000
ENDCHAR
STARTCHAR ocircumflex
ENCODING 244
SWIDTH 983 0
DWIDTH 35 0
BBX 30 31 3 0
BITMAP
00030000
000FC000
001EF000
00783C00
00C00C00
00000000
00000000
003FF000
01FFFE00
07C00F80
0E0001C0
18000060
30000030
70000038
60000018
E000001C
C000000C
C000000C
C000000C
C000000C
C000000C
C000000C
E000001C
60000018
70000038
30000030
18000060
0E0001C0
07C00F80
01FFFE00
003FF000
ENDCHAR
STARTCHAR otilde
ENCODING 245
SWIDTH 983 0
DWIDTH 35 0
BBX 30 30 3 0
BITMAP
00383000
007E3000
00E7F000
00C1E000
00000000
00000000
003FF000
01FFFE00
07C00F80
0E0001C0
18000060
30000030
70000038
60000018
E000001C
C000000C
C000000C
C000000C
C000000C
C000000C
C000000C
E000001C
60000018
70000038
30000030
18000060
0E0001C0
07C00F80
01FFFE00
003FF000
ENDCHAR
STARTCHAR odieresis
ENCODING 246
SWIDTH 983 0
DWIDTH 35 0
BBX 30 29 3 0
BITMAP
00387000
00387000
00387000
00000000
00000000
003FF000
01FFFE00
07C00F80
0E0001C0
18000060
30000030
70000038
60000018
E000001C
C000000C
C000000C
C000000C
C000000C
C000000C
C000000C
E000001C
60000018
70000038
30000030
18000060
0E0001C0
07C00F80
01FFFE00
003FF000
ENDCHAR
STARTCHAR divide
ENCODING 247
SWIDTH 634 0
DWIDTH 23 0
BBX 16 14 3 5
BITMAP
0180
0180
0180
0000
0000
0000
FFFF
FFFF
0000
0000
0000
0180
0180
0180
ENDCHAR
STARTCHAR oslash
ENCODING 248
SWIDTH 983 0
DWIDTH 35 0
BBX 31 30 2 -3
BITMAP
00000030
00000060
000000C0
003FF980
01FFFF80
07E007C0
0E0006E0
1C000E70
30001C18
7000181C
6000300C
E000600E
C000E006
C000C006
C0018006
C0030006
C0070006
C00E0006
E00C000E
6018000C
7030001C
30700018
1CE00070
0EC000E0
07C007C0
03FFFF00
033FF800
06000000
0C000000
18000000
ENDCHAR
STARTCHAR ugrave
ENCODING 249
SWIDTH 931 0
DWIDTH 34 0
BBX 25 31 4 0
BITMAP
01000000
03C00000
00F00000
003C0000
000C0000
00000000
00000000
C0000180
C0000180
C0000180
C0000180
C0000180
C0000180
C0000180
C0000180
C0000180
C0000180
C0000180
C0000180
C0000180
C0000180
C0000180
C0000180
C0000180
C0000380
C0000780
60001F80
70007980
3C03E180
1FFF8180
03FC0180
ENDCHAR
STARTCHAR uacute
ENCODING 250
SWIDTH 931 0
DWIDTH 34 0
BBX 25 31 4 0
BITMAP
0000C000
0003C000
000F8000
003C0000
00100000
00000000
00000000
C0000180
C0000180
C0000180
C0000180
C0000180
C0000180
C0000180
C0000180
C0000180
C0000180
C0000180
C0000180
C0000180
C0000180
C0000180
C0000180
C0000180
C0000380
C0000780
60001F80
70007980
3C03E180
1FFF8180
03FC0180
ENDCHAR
STARTCHAR ucircumflex
ENCODING 251
SWIDTH 931 0
DWIDTH 34 0
BBX 25 31 4 0
BITMAP
000C0000
003F0000
007BC000
01C0F000
03003000
00000000
00000000
C0000180
C0000180
C0000180
C0000180
C0000180
C0000180
C0000180
C0000180
C0000180
C0000180
C0000180
C0000180
C0000180
C0000180
C0000180
C0000180
C0000180
C0000380
C0000780
60001F80
70007980
3C03E180
1FFF8180
03FC0180
ENDCHAR
STARTCHAR udieresis
ENCODING 252
SWIDTH 931 0
DWIDTH 34 0
BBX 25 29 4 0
BITMAP
00E1C000
00E1C000
00E1C000
00000000
00000000
C0000180
C0000180
C0000180
C0000180
C0000180
C0000180
C0000180
C0000180
C0000180
C0000180
C0000180
C0000180
C0000180
C0000180
C0000180
C0000180
C0000180
C0000380
C0000780
60001F80
70007980
3C03E180
1FFF8180
03FC0180
ENDCHAR
STARTCHAR yacute
ENCODING 253
SWIDTH 911 0
DWIDTH 33 0
BBX 25 31 3 0
BITMAP
00004000
0001C000
00078000
001E0000
00300000
00000000
00000000
C0000180
C0000180
C0000180
C0000180
C0000180
C0000180
C0000180
C0000180
C0000380
E0000780
60000F80
70001D80
38003980
1E01F180
0FFFC180
01FE0180
00000180
00000380
00000300
00000F00
80001E00
F800F800
FFFFF000
1FFF0000
ENDCHAR
STARTCHAR thorn
ENCODING 254
SWIDTH 787 0
DWIDTH 28 0
BBX 22 24 4 0
BITMAP
C00000
C00000
C00000
C00000
FFFF00
FFFFE0
C000F0
C00038
C0001C
C0000C
C0000C
C0000C
C0000C
C0000C
C0001C
C00038
C000F0
FFFFE0
FFFF00
C00000
C00000
C00000
C00000
C00000
ENDCHAR
STARTCHAR ydieresis
ENCODING 255
SWIDTH 911 0
DWIDTH 33 0
BBX 25 29 3 0
BITMAP
00E1C000
00E1C000
00E1C000
00000000
00000000
C0000180
C0000180
C0000180
C0000180
C0000180
C0000180
C0000180
C0000180
C0000380
E0000780
60000F80
70001D80
38003980
1E01F180
0FFFC180
01FE0180
00000180
00000380
00000300
00000F00
80001E00
F800F800
FFFFF000
1FFF0000
ENDCHAR
STARTCHAR Amacron
ENCODING 256
SWIDTH 812 0
DWIDTH 29 0
BBX 27 29 1 0
BITMAP
007FE000
007FE000
00000000
00000000
00000000
000E0000
001F0000
001B0000
003B8000
00318000
0071C000
0060C000
00E0E000
00C06000
01C07000
01803000
03803800
03001800
07001C00
06000C00
0E000E00
1FFFFE00
1FFFFF00
38000380
30000180
700001C0
600000C0
E00000E0
C0000060
ENDCHAR
STARTCHAR amacron
ENCODING 257
SWIDTH 888 0
DWIDTH 32 0
BBX 26 29 2 0
BITMAP
007FE000
007FE000
00000000
00000000
00000000
03FFE000
3FFFFC00
3F003E00
30000700
00000180
000000C0
000000C0
000000C0
000000C0
00007FC0
003FFFC0
03FF80C0
0FC000C0
3C0000C0
700000C0
E00000C0
C00000C0
C00000C0
C00000C0
E00001C0
70000FC0
3C00FEC0
1FFFF0C0
03FF00C0
ENDCHAR
STARTCHAR Abreve
ENCODING 258
SWIDTH 812 0
DWIDTH 29 0
BBX 27 30 1 0
BITMAP
01806000
00E0E000
007FC000
003F0000
00000000
00000000
000E0000
001F0000
001B0000
003B8000
00318000
0071C000
0060C000
00E0E000
00C06000
01C07000
01803000
03803800
03001800
07001C00
06000C00
0E000E00
1FFFFE00
1FFFFF00
38000380
30000180
700001C0
600000C0
E00000E0
C0000060
ENDCHAR
STARTCHAR abreve
ENCODING 259
SWIDTH 888 0
DWIDTH 32 0
BBX 26 30 2 0
BITMAP
01C06000
00E0E000
007FC000
003F0000
00000000
00000000
03FFE000
3FFFFC00
3F003E00
30000700
00000180
000000C0
000000C0
000000C0
000000C0
00007FC0
003FFFC0
03FF80C0
0FC000C0
3C0000C0
700000C0
E00000C0
C00000C0
C00000C0
C00000C0
E00001C0
70000FC0
3C00FEC0
1FFFF0C0
03FF00C0
ENDCHAR
STARTCHAR Aogonek
ENCODING 260
SWIDTH 812 0
DWIDTH 29 0
BBX 30 30 1 -6
BITMAP
000E0000
001F0000
001B0000
003B8000
00318000
0071C000
0060C000
00E0E000
00C06000
01C07000
01803000
03803800
03001800
07001C00
06000C00
0E000E00
1FFFFE00
1FFFFF00
38000380
30000180
700001C0
600000C0
E00000E0
C0000060
000000C0
00000180
00000300
00000300
000003FC
000001FC
ENDCHAR
STARTCHAR aogonek
ENCODING 261
SWIDTH 888 0
DWIDTH 32 0
BBX 29 30 2 -6
BITMAP
03FFE000
3FFFFC00
3F003E00
30000700
00000180
000000C0
000000C0
000000C0
000000C0
00007FC0
003FFFC0
03FF80C0
0FC000C0
3C0000C0
700000C0
E00000C0
C00000C0
C00000C0
C00000C0
E00001C0
70000FC0
3C00FEC0
1FFFF0C0
03FF00C0
00000180
00000300
00000600
00000600
000007F8
000003F8
ENDCHAR
STARTCHAR Cacute
ENCODING 262
SWIDTH 869 0
DWIDTH 31 0
BBX 26 31 3 0
BITMAP
00002000
0000F000
0003C000
000F0000
000C0000
00000000
00000000
003FF800
01FFFF00
07C00FC0
0E0001C0
1C000040
30000000
70000000
60000000
E0000000
C0000000
C0000000
C0000000
C0000000
C0000000
C0000000
E0000000
60000000
70000000
30000000
1C000040
0E0001C0
07C00FC0
01FFFF80
003FF800
ENDCHAR
STARTCHAR cacute
ENCODING 263
SWIDTH 869 0
DWIDTH 31 0
BBX 26 31 3 0
BITMAP
00002000
0000F000
0003C000
000F0000
000C0000
00000000
00000000
003FF800
01FFFF00
07C00FC0
0E0001C0
1C000040
30000000
70000000
60000000
E0000000
C0000000
C0000000
C0000000
C0000000
C0000000
C0000000
E0000000
60000000
70000000
30000000
1C000040
0E0001C0
07C00FC0
01FFFF80
003FF800
ENDCHAR
STARTCHAR Ccircumflex
ENCODING 264
SWIDTH 869 0
DWIDTH 31 0
BBX 26 31 3 0
BITMAP
00030000
000FC000
003FF000
00F03C00
00C00C00
00000000
00000000
003FF800
01FFFF00
07C00FC0
0E0001C0
1C000040
30000000
70000000
60000000
E0000000
C0000000
C0000000
C0000000
C0000000
C0000000
C0000000
E0000000
60000000
70000000
30000000
1C000040
0E0001C0
07C00FC0
01FFFF80
003FF800
ENDCHAR
STARTCHAR ccircumflex
ENCODING 265
SWIDTH 869 0
DWIDTH 31 0
BBX 26 31 3 0
BITMAP
00030000
000FC000
003FF000
00703C00
00C00C00
00000000
00000000
003FF800
01FFFF00
07C00FC0
0E0001C0
1C000040
30000000
70000000
60000000
E0000000
C0000000
C0000000
C0000000
C0000000
C0000000
C0000000
E0000000
60000000
70000000
30000000
1C000040
0E0001C0
07C00FC0
01FFFF80
003FF800
ENDCHAR
STARTCHAR Cdotaccent
ENCODING 266
SWIDTH 869 0
DWIDTH 31 0
BBX 26 29 3 0
BITMAP
00070000
00070000
00070000
00000000
00000000
003FF800
01FFFF00
07C00FC0
0E0001C0
1C000040
30000000
70000000
60000000
E0000000
C0000000
C0000000
C0000000
C0000000
C0000000
C0000000
E0000000
60000000
70000000
30000000
1C000040
0E0001C0
07C00FC0
01FFFF80
003FF800
ENDCHAR
STARTCHAR cdotaccent
ENCODING 267
SWIDTH 869 0
DWIDTH 31 0
BBX 26 29 3 0
BITMAP
00070000
00070000
00070000
00000000
00000000
003FF800
01FFFF00
07C00FC0
0E0001C0
1C000040
30000000
70000000
60000000
E0000000
C0000000
C0000000
C0000000
C0000000
C0000000
C0000000
E0000000
60000000
70000000
30000000
1C000040
0E0001C0
07C00FC0
01FFFF80
003FF800
ENDCHAR
STARTCHAR Ccaron
ENCODING 268
SWIDTH 869 0
DWIDTH 31 0
BBX 26 31 3 0
BITMAP
00C00C00
00F03C00
003FF000
000FC000
00030000
00000000
00000000
003FF800
01FFFF00
07C00FC0
0E0001C0
1C000040
30000000
70000000
60000000
E0000000
C0000000
C0000000
C0000000
C0000000
C0000000
C0000000
E0000000
60000000
70000000
30000000
1C000040
0E0001C0
07C00FC0
01FFFF80
003FF800
ENDCHAR
STARTCHAR ccaron
ENCODING 269
SWIDTH 869 0
DWIDTH 31 0
BBX 26 31 3 0
BITMAP
00C00C00
00703C00
003EF000
000FC000
00030000
00000000
00000000
003FF800
01FFFF00
07C00FC0
0E0001C0
1C000040
30000000
70000000
60000000
E0000000
C0000000
C0000000
C0000000
C0000000
C0000000
C0000000
E0000000
60000000
70000000
30000000
1C000040
0E0001C0
07C00FC0
01FFFF80
003FF800
ENDCHAR
STARTCHAR Dcaron
ENCODING 270
SWIDTH 910 0
DWIDTH 33 0
BBX 26 31 4 0
BITMAP
08018000
1F078000
03DE0000
01F80000
00600000
00000000
00000000
FFFF8000
FFFFF000
C0007C00
C0000E00
C0000700
C0000380
C0000180
C0000180
C00000C0
C00000C0
C00000C0
C00000C0
C00000C0
C00000C0
C00000C0
C00000C0
C0000180
C0000180
C0000380
C0000700
C0000E00
C0007C00
FFFFF000
FFFF8000
ENDCHAR
STARTCHAR dcaron
ENCODING 271
SWIDTH 910 0
DWIDTH 33 0
BBX 26 31 4 0
BITMAP
08018000
1F078000
03DE0000
01F80000
00600000
00000000
00000000
FFFF8000
FFFFF000
C0007C00
C0000E00
C0000700
C0000380
C0000180
C0000180
C00000C0
C00000C0
C00000C0
C00000C0
C00000C0
C00000C0
C00000C0
C00000C0
C0000180
C0000180
C0000380
C0000700
C0000E00
C0007C00
FFFFF000
FFFF8000
ENDCHAR
STARTCHAR Dcroat
ENCODING 272
SWIDTH 910 0
DWIDTH 33 0
BBX 30 24 0 0
BITMAP
0FFFF800
0FFFFF00
0C000FC0
0C0001E0
0C000070
0C000038
0C000018
0C000018
0C00000C
0C00000C
0C00000C
FFFF000C
FFFF000C
0C00000C
0C00000C
0C00000C
0C000018
0C000018
0C000038
0C000070
0C0000E0
0C0007C0
0FFFFF00
0FFFF800
ENDCHAR
STARTCHAR dcroat
ENCODING 273
SWIDTH 910 0
DWIDTH 33 0
BBX 30 24 0 0
BITMAP
0FFFF800
0FFFFF00
0C000FC0
0C0001E0
0C000070
0C000038
0C000018
0C000018
0C00000C
0C00000C
0C00000C
FFFF000C
FFFF000C
0C00000C
0C00000C
0C00000C
0C000018
0C000018
0C000038
0C000070
0C0000E0
0C0007C0
0FFFFF00
0FFFF800
ENDCHAR
STARTCHAR Emacron
ENCODING 274
SWIDTH 754 0
DWIDTH 27 0
BBX 20 29 4 0
BITMAP
07FE00
07FE00
000000
000000
000000
FFFFF0
FFFFF0
C00000
C00000
C00000
C00000
C00000
C00000
C00000
C00000
FFFFE0
FFFFE0
C00000
C00000
C00000
C00000
C00000
C00000
C00000
C00000
C00000
C00000
FFFFF0
FFFFF0
ENDCHAR
STARTCHAR emacron
ENCODING 275
SWIDTH 910 0
DWIDTH 33 0
BBX 28 29 2 0
BITMAP
003FF000
003FF000
00000000
00000000
00000000
003FE000
01FFFC00
07C01E00
0E000780
1C000180
380000C0
70000060
60000060
E0000060
C0000030
C0000030
FFFFFFF0
FFFFFFF0
C0000000
C0000000
E0000000
60000000
70000000
30000000
1C000000
0E000040
07E007C0
01FFFFC0
003FFE00
ENDCHAR
STARTCHAR Ebreve
ENCODING 276
SWIDTH 754 0
DWIDTH 27 0
BBX 20 30 4 0
BITMAP
1C0600
0E0E00
07FC00
03F000
000000
000000
FFFFF0
FFFFF0
C00000
C00000
C00000
C00000
C00000
C00000
C00000
C00000
FFFFE0
FFFFE0
C00000
C00000
C00000
C00000
C00000
C00000
C00000
C00000
C00000
C00000
FFFFF0
FFFFF0
ENDCHAR
STARTCHAR ebreve
ENCODING 277
SWIDTH 910 0
DWIDTH 33 0
BBX 28 30 2 0
BITMAP
00C03000
0060E000
007FC000
001F8000
00000000
00000000
003FE000
01FFFC00
07C01E00
0E000780
1C000180
380000C0
70000060
60000060
E0000060
C0000030
C0000030
FFFFFFF0
FFFFFFF0
C0000000
C0000000
E0000000
60000000
70000000
30000000
1C000000
0E000040
07E007C0
01FFFFC0
003FFE00
ENDCHAR
STARTCHAR Edotaccent
ENCODING 278
SWIDTH 754 0
DWIDTH 27 0
BBX 20 29 4 0
BITMAP
00E000
00E000
00E000
000000
000000
FFFFF0
FFFFF0
C00000
C00000
C00000
C00000
C00000
C00000
C00000
C00000
FFFFE0
FFFFE0
C00000
C00000
C00000
C00000
C00000
C00000
C00000
C00000
C00000
C00000
FFFFF0
FFFFF0
ENDCHAR
STARTCHAR edotaccent
ENCODING 279
SWIDTH 910 0
DWIDTH 33 0
BBX 28 29 2 0
BITMAP
00070000
00070000
00070000
00000000
00000000
003FE000
01FFFC00
07C01E00
0E000780
1C000180
380000C0
70000060
60000060
E0000060
C0000030
C0000030
FFFFFFF0
FFFFFFF0
C0000000
C0000000
E0000000
60000000
70000000
30000000
1C000000
0E000040
07E007C0
01FFFFC0
003FFE00
ENDCHAR
STARTCHAR Eogonek
ENCODING 280
SWIDTH 754 0
DWIDTH 27 0
BBX 20 30 4 -6
BITMAP
FFFFF0
FFFFF0
C00000
C00000
C00000
C00000
C00000
C00000
C00000
C00000
FFFFE0
FFFFE0
C00000
C00000
C00000
C00000
C00000
C00000
C00000
C00000
C00000
C00000
FFFFF0
FFFFF0
000380
000600
000C00
000C00
000FF0
0007F0
ENDCHAR
STARTCHAR eogonek
ENCODING 281
SWIDTH 910 0
DWIDTH 33 0
BBX 28 30 2 -6
BITMAP
003FE000
01FFFC00
07C01E00
0E000780
1C000180
380000C0
70000060
60000060
E0000060
C0000030
C0000030
FFFFFFF0
FFFFFFF0
C0000000
C0000000
E0000000
60000000
70000000
30000000
1C000000
0E000040
07E007C0
01FFFFC0
003FFF80
00000600
00000C00
00000C00
00000C00
00000FF0
000003F0
ENDCHAR
STARTCHAR Ecaron
ENCODING 282
SWIDTH 754 0
DWIDTH 27 0
BBX 20 31 4 0
BITMAP
080080
1F0780
03DE00
00F800
006000
000000
000000
FFFFF0
FFFFF0
C00000
C00000
C00000
C00000
C00000
C00000
C00000
C00000
FFFFE0
FFFFE0
C00000
C00000
C00000
C00000
C00000
C00000
C00000
C00000
C00000
C00000
FFFFF0
FFFFF0
ENDCHAR
STARTCHAR ecaron
ENCODING 283
SWIDTH 910 0
DWIDTH 33 0
BBX 28 31 2 0
BITMAP
00C00C00
00F03C00
003DF000
000FC000
00030000
00000000
00000000
003FE000
01FFFC00
07C01E00
0E000780
1C000180
380000C0
70000060
60000060
E0000060
C0000030
C0000030
FFFFFFF0
FFFFFFF0
C0000000
C0000000
E0000000
60000000
70000000
30000000
1C000000
0E000040
07E007C0
01FFFFC0
003FFE00
ENDCHAR
STARTCHAR Gcircumflex
ENCODING 284
SWIDTH 910 0
DWIDTH 33 0
BBX 27 31 3 0
BITMAP
00030000
000FC000
001EF000
00783C00
00C00C00
00000000
00000000
003FF800
01FFFF80
07E00FC0
0E0001C0
1C000040
30000000
70000000
60000000
E0000000
C0000000
C0000000
C0000000
C001FFE0
C001FFE0
C0000060
E0000060
60000060
70000060
38000060
1C000060
0F000060
07E003E0
01FFFFC0
003FFC00
ENDCHAR
STARTCHAR gcircumflex
ENCODING 285
SWIDTH 910 0
DWIDTH 33 0
BBX 27 31 3 0
BITMAP
00030000
000FC000
001EF000
00783C00
00C00C00
00000000
00000000
003FF800
01FFFF80
07E00FC0
0E0001C0
1C000040
30000000
70000000
60000000
E0000000
C0000000
C0000000
C0000000
C001FFE0
C001FFE0
C0000060
E0000060
60000060
70000060
38000060
1C000060
0F000060
07E003E0
01FFFFC0
003FFC00
ENDCHAR
STARTCHAR Gbreve
ENCODING 286
SWIDTH 910 0
DWIDTH 33 0
BBX 27 30 3 0
BITMAP
00E03000
00707000
003FE000
001F8000
00000000
00000000
003FF800
01FFFF80
07E00FC0
0E0001C0
1C000040
30000000
70000000
60000000
E0000000
C0000000
C0000000
C0000000
C001FFE0
C001FFE0
C0000060
E0000060
60000060
70000060
38000060
1C000060
0F000060
07E003E0
01FFFFC0
003FFC00
ENDCHAR
STARTCHAR gbreve
ENCODING 287
SWIDTH 910 0
DWIDTH 33 0
BBX 27 30 3 0
BITMAP
00E03000
00707000
003FE000
001F8000
00000000
00000000
003FF800
01FFFF80
07E00FC0
0E0001C0
1C000040
30000000
70000000
60000000
E0000000
C0000000
C0000000
C0000000
C001FFE0
C001FFE0
C0000060
E0000060
60000060
70000060
38000060
1C000060
0F000060
07E003E0
01FFFFC0
003FFC00
ENDCHAR
STARTCHAR Gdotaccent
ENCODING 288
SWIDTH 910 0
DWIDTH 33 0
BBX 27 29 3 0
BITMAP
00070000
00070000
00070000
00000000
00000000
003FF800
01FFFF80
07E00FC0
0E0001C0
1C000040
30000000
70000000
60000000
E0000000
C0000000
C0000000
C0000000
C001FFE0
C001FFE0
C0000060
E0000060
60000060
70000060
38000060
1C000060
0F000060
07E003E0
01FFFFC0
003FFC00
ENDCHAR
STARTCHAR gdotaccent
ENCODING 289
SWIDTH 910 0
DWIDTH 33 0
BBX 27 29 3 0
BITMAP
00070000
00070000
00070000
00000000
00000000
003FF800
01FFFF80
07E00FC0
0E0001C0
1C000040
30000000
70000000
60000000
E0000000
C0000000
C0000000
C0000000
C001FFE0
C001FFE0
C0000060
E0000060
60000060
70000060
38000060
1C000060
0F000060
07E003E0
01FFFFC0
003FFC00
ENDCHAR
STARTCHAR Gcommaaccent
ENCODING 290
SWIDTH 910 0
DWIDTH 33 0
BBX 27 32 3 -8
BITMAP
003FF800
01FFFF80
07E00FC0
0E0001C0
1C000040
30000000
70000000
60000000
E0000000
C0000000
C0000000
C0000000
C001FFE0
C001FFE0
C0000060
E0000060
60000060
70000060
38000060
1C000060
0F000060
07E003E0
01FFFFC0
003FFC00
00000000
00000000
00000000
00038000
00030000
00030000
00030000
00020000
ENDCHAR
STARTCHAR gcommaaccent
ENCODING 291
SWIDTH 910 0
DWIDTH 33 0
BBX 27 32 3 -8
BITMAP
003FF800
01FFFF80
07E00FC0
0E0001C0
1C000040
30000000
70000000
60000000
E0000000
C0000000
C0000000
C0000000
C001FFE0
C001FFE0
C0000060
E0000060
60000060
70000060
38000060
1C000060
0F000060
07E003E0
01FFFFC0
003FFC00
00000000
00000000
00000000
00038000
00030000
00030000
00030000
00020000
ENDCHAR
STARTCHAR Hcircumflex
ENCODING 292
SWIDTH 949 0
DWIDTH 34 0
BBX 26 31 4 0
BITMAP
00060000
001F0000
007BC000
01E0F000
01001800
00000000
00000000
C00000C0
C00000C0
C00000C0
C00000C0
C00000C0
C00000C0
C00000C0
C00000C0
C00000C0
C00000C0
FFFFFFC0
FFFFFFC0
C00000C0
C00000C0
C00000C0
C00000C0
C00000C0
C00000C0
C00000C0
C00000C0
C00000C0
C00000C0
C00000C0
C00000C0
ENDCHAR
STARTCHAR hcircumflex
ENCODING 293
SWIDTH 949 0
DWIDTH 34 0
BBX 26 31 4 0
BITMAP
00060000
001F0000
007BC000
01E0F000
01001800
00000000
00000000
C00000C0
C00000C0
C00000C0
C00000C0
C00000C0
C00000C0
C00000C0
C00000C0
C00000C0
C00000C0
FFFFFFC0
FFFFFFC0
C00000C0
C00000C0
C00000C0
C00000C0
C00000C0
C00000C0
C00000C0
C00000C0
C00000C0
C00000C0
C00000C0
C00000C0
ENDCHAR
STARTCHAR Hbar
ENCODING 294
SWIDTH 949 0
DWIDTH 34 0
BBX 32 24 1 0
BITMAP
18000018
18000018
18000018
18000018
18000018
FFFFFFFF
FFFFFFFF
18000018
18000018
18000018
1FFFFFF8
1FFFFFF8
18000018
18000018
18000018
18000018
18000018
18000018
18000018
18000018
18000018
18000018
18000018
18000018
ENDCHAR
STARTCHAR hbar
ENCODING 295
SWIDTH 949 0
DWIDTH 34 0
BBX 32 24 1 0
BITMAP
18000018
18000018
18000018
18000018
18000018
FFFFFFFF
FFFFFFFF
18000018
18000018
18000018
1FFFFFF8
1FFFFFF8
18000018
18000018
18000018
18000018
18000018
18000018
18000018
18000018
18000018
18000018
18000018
18000018
ENDCHAR
STARTCHAR Itilde
ENCODING 296
SWIDTH 287 0
DWIDTH 10 0
BBX 12 30 -1 0
BITMAP
7830
FE60
C7E0
C1C0
0000
0000
0600
0600
0600
0600
0600
0600
0600
0600
0600
0600
0600
0600
0600
0600
0600
0600
0600
0600
0600
0600
0600
0600
0600
0600
ENDCHAR
STARTCHAR itilde
ENCODING 297
SWIDTH 287 0
DWIDTH 10 0
BBX 12 30 -1 0
BITMAP
7830
FE70
C7E0
C1C0
0000
0000
0600
0600
0600
0600
0600
0600
0600
0600
0600
0600
0600
0600
0600
0600
0600
0600
0600
0600
0600
0600
0600
0600
0600
0600
ENDCHAR
STARTCHAR Imacron
ENCODING 298
SWIDTH 287 0
DWIDTH 10 0
BBX 10 29 1 0
BITMAP
FFC0
FFC0
0000
0000
0000
1800
1800
1800
1800
1800
1800
1800
1800
1800
1800
1800
1800
1800
1800
1800
1800
1800
1800
1800
1800
1800
1800
1800
1800
ENDCHAR
STARTCHAR imacron
ENCODING 299
SWIDTH 287 0
DWIDTH 10 0
BBX 10 29 1 0
BITMAP
FFC0
FFC0
0000
0000
0000
1800
1800
1800
1800
1800
1800
1800
1800
1800
1800
1800
1800
1800
1800
1800
1800
1800
1800
1800
1800
1800
1800
1800
1800
ENDCHAR
STARTCHAR Ibreve
ENCODING 300
SWIDTH 287 0
DWIDTH 10 0
BBX 12 30 -1 0
BITMAP
C070
E0E0
7FC0
1F80
0000
0000
0600
0600
0600
0600
0600
0600
0600
0600
0600
0600
0600
0600
0600
0600
0600
0600
0600
0600
0600
0600
0600
0600
0600
0600
ENDCHAR
STARTCHAR ibreve
ENCODING 301
SWIDTH 287 0
DWIDTH 10 0
BBX 12 30 -1 0
BITMAP
C070
E0E0
7FC0
1F80
0000
0000
0600
0600
0600
0600
0600
0600
0600
0600
0600
0600
0600
0600
0600
0600
0600
0600
0600
0600
0600
0600
0600
0600
0600
0600
ENDCHAR
STARTCHAR Iogonek
ENCODING 302
SWIDTH 287 0
DWIDTH 10 0
BBX 8 30 1 -6
BITMAP
18
18
18
18
18
18
18
18
18
18
18
18
18
18
18
18
18
18
18
18
18
18
18
18
30
60
C0
C0
FF
7F
ENDCHAR
STARTCHAR iogonek
ENCODING 303
SWIDTH 287 0
DWIDTH 10 0
BBX 8 30 1 -6
BITMAP
18
18
18
18
18
18
18
18
18
18
18
18
18
18
18
18
18
18
18
18
18
18
18
18
30
60
C0
C0
FF
7F
ENDCHAR
STARTCHAR Idotaccent
ENCODING 304
SWIDTH 287 0
DWIDTH 10 0
BBX 3 29 4 0
BITMAP
E0
E0
E0
00
00
C0
C0
C0
C0
C0
C0
C0
C0
C0
C0
C0
C0
C0
C0
C0
C0
C0
C0
C0
C0
C0
C0
C0
C0
ENDCHAR
STARTCHAR dotlessi
ENCODING 305
SWIDTH 287 0
DWIDTH 10 0
BBX 2 24 4 0
BITMAP
C0
C0
C0
C0
C0
C0
C0
C0
C0
C0
C0
C0
C0
C0
C0
C0
C0
C0
C0
C0
C0
C0
C0
C0
ENDCHAR
STARTCHAR IJ
ENCODING 306
SWIDTH 877 0
DWIDTH 32 0
BBX 23 24 4 0
BITMAP
C00006
C00006
C00006
C00006
C00006
C00006
C00006
C00006
C00006
C00006
C00006
C00006
C00006
C00006
C00006
C00006
C00006
C00006
C00006
C0000E
C0001C
C38078
C3FFF0
C07FC0
ENDCHAR
STARTCHAR ij
ENCODING 307
SWIDTH 877 0
DWIDTH 32 0
BBX 23 24 4 0
BITMAP
C00006
C00006
C00006
C00006
C00006
C00006
C00006
C00006
C00006
C00006
C00006
C00006
C00006
C00006
C00006
C00006
C00006
C00006
C00006
C0000E
C0001C
C38078
C3FFF0
C07FC0
ENDCHAR
STARTCHAR Jcircumflex
ENCODING 308
SWIDTH 590 0
DWIDTH 21 0
BBX 24 31 0 0
BITMAP
0000C0
0003F0
000F78
003C0E
003003
000000
000000
000180
000180
000180
000180
000180
000180
000180
000180
000180
000180
000180
000180
000180
000180
000180
000180
000180
000180
000180
000300
000700
C01E00
FFFC00
3FE000
ENDCHAR
STARTCHAR jcircumflex
ENCODING 309
SWIDTH 590 0
DWIDTH 21 0
BBX 24 31 0 0
BITMAP
0000C0
0003F0
000F78
003C0E
003003
000000
000000
000180
000180
000180
000180
000180
000180
000180
000180
000180
000180
000180
000180
000180
000180
000180
000180
000180
000180
000180
000300
000700
C01E00
FFFC00
3FE000
ENDCHAR
STARTCHAR Kcommaaccent
ENCODING 310
SWIDTH 806 0
DWIDTH 29 0
BBX 24 32 4 -8
BITMAP
C0001E
C00038
C000E0
C001C0
C00700
C01E00
C03800
C0F000
C3C000
C78000
DE0000
FC0000
DE0000
C78000
C3C000
C0F000
C07800
C01E00
C00F00
C003C0
C001E0
C00078
C0003C
C0000F
000000
000000
000000
003000
007000
006000
006000
006000
ENDCHAR
STARTCHAR kcommaaccent
ENCODING 311
SWIDTH 867 0
DWIDTH 31 0
BBX 25 32 4 -8
BITMAP
C0000600
C0000600
C0000E00
C0000C00
C0001C00
C0001800
C0003000
C000E000
C001C000
C0078000
C03E0000
FFF00000
FFFE0000
C01F8000
C001E000
C0007000
C0003C00
C0000C00
C0000600
C0000700
C0000300
C0000380
C0000180
C0000180
00000000
00000000
00000000
00180000
00180000
00300000
00300000
00300000
ENDCHAR
STARTCHAR kgreenlandic
ENCODING 312
SWIDTH 867 0
DWIDTH 31 0
BBX 25 24 4 0
BITMAP
C0000600
C0000600
C0000E00
C0000C00
C0001C00
C0001800
C0003000
C000E000
C001C000
C0078000
C03E0000
FFF00000
FFFE0000
C01F8000
C001E000
C0007000
C0003C00
C0000C00
C0000600
C0000700
C0000300
C0000380
C0000180
C0000180
ENDCHAR
STARTCHAR Lacute
ENCODING 313
SWIDTH 701 0
DWIDTH 25 0
BBX 21 31 3 0
BITMAP
020000
0F0000
3C0000
F00000
C00000
000000
000000
600000
600000
600000
600000
600000
600000
600000
600000
600000
600000
600000
600000
600000
600000
600000
600000
600000
600000
600000
600000
600000
600000
7FFFF8
7FFFF8
ENDCHAR
STARTCHAR lacute
ENCODING 314
SWIDTH 709 0
DWIDTH 26 0
BBX 22 31 3 0
BITMAP
020000
0F0000
3C0000
F00000
C00000
000000
000000
600000
600000
600000
600000
600000
600000
600000
600000
600000
600000
600000
600000
600000
600000
600000
600000
600000
600000
600000
700000
300000
3C0000
1FFFFC
03FFFC
ENDCHAR
STARTCHAR Lcommaaccent
ENCODING 315
SWIDTH 701 0
DWIDTH 25 0
BBX 20 32 4 -8
BITMAP
C00000
C00000
C00000
C00000
C00000
C00000
C00000
C00000
C00000
C00000
C00000
C00000
C00000
C00000
C00000
C00000
C00000
C00000
C00000
C00000
C00000
C00000
FFFFF0
FFFFF0
000000
000000
000000
007000
006000
006000
006000
004000
ENDCHAR
STARTCHAR lcommaaccent
ENCODING 316
SWIDTH 709 0
DWIDTH 26 0
BBX 21 32 4 -8
BITMAP
C00000
C00000
C00000
C00000
C00000
C00000
C00000
C00000
C00000
C00000
C00000
C00000
C00000
C00000
C00000
C00000
C00000
C00000
C00000
E00000
600000
780000
3FFFF8
07FFF8
000000
000000
000000
003000
003000
003000
003000
006000
ENDCHAR
STARTCHAR Lcaron
ENCODING 317
SWIDTH 701 0
DWIDTH 25 0
BBX 20 24 4 0
BITMAP
C00600
C00E00
C00E00
C00C00
C00C00
C00C00
C01000
C00000
C00000
C00000
C00000
C00000
C00000
C00000
C00000
C00000
C00000
C00000
C00000
C00000
C00000
C00000
FFFFF0
FFFFF0
ENDCHAR
STARTCHAR lcaron
ENCODING 318
SWIDTH 709 0
DWIDTH 26 0
BBX 21 24 4 0
BITMAP
C00600
C00E00
C00E00
C00C00
C00C00
C00C00
C01000
C00000
C00000
C00000
C00000
C00000
C00000
C00000
C00000
C00000
C00000
C00000
C00000
E00000
600000
780000
3FFFF8
07FFF8
ENDCHAR
STARTCHAR Ldot
ENCODING 319
SWIDTH 701 0
DWIDTH 25 0
BBX 20 24 4 0
BITMAP
C00000
C00000
C00000
C00000
C00000
C00000
C00000
C00000
C00000
C00000
C00E00
C00E00
C00E00
C00E00
C00000
C00000
C00000
C00000
C00000
C00000
C00000
C00000
FFFFF0
FFFFF0
ENDCHAR
STARTCHAR ldotaccent
ENCODING 320
SWIDTH 709 0
DWIDTH 26 0
BBX 21 24 4 0
BITMAP
C00000
C00000
C00000
C00000
C00000
C00000
C00000
C00000
C00000
C00000
C00700
C00700
C00700
C00700
C00000
C00000
C00000
C00000
C00000
E00000
600000
780000
3FFFF8
07FFF8
ENDCHAR
STARTCHAR Lslash
ENCODING 321
SWIDTH 701 0
DWIDTH 25 0
BBX 24 24 0 0
BITMAP
0C0000
0C0000
0C0000
0C0000
0C0000
0C0000
0C0000
0C0000
0C1800
0C7800
0DE000
0F8000
3E0000
FC0000
CC0000
0C0000
0C0000
0C0000
0C0000
0C0000
0C0000
0C0000
0FFFFF
0FFFFF
ENDCHAR
STARTCHAR lslash
ENCODING 322
SWIDTH 709 0
DWIDTH 26 0
BBX 25 24 0 0
BITMAP
0C000000
0C000000
0C000000
0C000000
0C000000
0C000000
0C000000
0C000000
0C180000
0C780000
0DE00000
0F800000
3E000000
FC000000
CC000000
0C000000
0C000000
0C000000
0C000000
0E000000
06000000
07800000
03FFFF80
007FFF80
ENDCHAR
STARTCHAR Nacute
ENCODING 323
SWIDTH 936 0
DWIDTH 34 0
BBX 26 31 4 0
BITMAP
0000C000
0001C000
00078000
001C0000
00300000
00000000
00000000
E00000C0
F00000C0
F80000C0
DC0000C0
CE0000C0
C70000C0
C38000C0
C1C000C0
C0E000C0
C07000C0
C03800C0
C01C00C0
C00E00C0
C00700C0
C00380C0
C001C0C0
C000E0C0
C00070C0
C00038C0
C0001CC0
C0000EC0
C00007C0
C00003C0
C00001C0
ENDCHAR
STARTCHAR nacute
ENCODING 324
SWIDTH 933 0
DWIDTH 34 0
BBX 26 31 4 0
BITMAP
00008000
0003C000
000F0000
003C0000
00300000
00000000
00000000
C00FF000
C0FFFE00
C3F00F00
CF800380
FC000180
F00000C0
E00000C0
C00000C0
C00000C0
C00000C0
C00000C0
C00000C0
C00000C0
C00000C0
C00000C0
C00000C0
C00000C0
C00000C0
C00000C0
C00000C0
C00000C0
C00000C0
C00000C0
C00000C0
ENDCHAR
STARTCHAR Ncommaaccent
ENCODING 325
SWIDTH 936 0
DWIDTH 34 0
BBX 26 32 4 -8
BITMAP
E00000C0
F00000C0
F80000C0
DC0000C0
CE0000C0
C70000C0
C38000C0
C1C000C0
C0E000C0
C07000C0
C03800C0
C01C00C0
C00E00C0
C00700C0
C00380C0
C001C0C0
C000E0C0
C00070C0
C00038C0
C0001CC0
C0000EC0
C00007C0
C00003C0
C00001C0
00000000
00000000
00000000
000C0000
000C0000
000C0000
00080000
00180000
ENDCHAR
STARTCHAR ncommaaccent
ENCODING 326
SWIDTH 933 0
DWIDTH 34 0
BBX 26 32 4 -8
BITMAP
C00FF000
C0FFFE00
C3F00F00
CF800380
FC000180
F00000C0
E00000C0
C00000C0
C00000C0
C00000C0
C00000C0
C00000C0
C00000C0
C00000C0
C00000C0
C00000C0
C00000C0
C00000C0
C00000C0
C00000C0
C00000C0
C00000C0
C00000C0
C00000C0
00000000
00000000
00000000
000C0000
000C0000
000C0000
00180000
00180000
ENDCHAR
STARTCHAR Ncaron
ENCODING 327
SWIDTH 936 0
DWIDTH 34 0
BBX 26 31 4 0
BITMAP
01003000
03E0F000
007BC000
003F0000
000C0000
00000000
00000000
E00000C0
F00000C0
F80000C0
DC0000C0
CE0000C0
C70000C0
C38000C0
C1C000C0
C0E000C0
C07000C0
C03800C0
C01C00C0
C00E00C0
C00700C0
C00380C0
C001C0C0
C000E0C0
C00070C0
C00038C0
C0001CC0
C0000EC0
C00007C0
C00003C0
C00001C0
ENDCHAR
STARTCHAR ncaron
ENCODING 328
SWIDTH 933 0
DWIDTH 34 0
BBX 26 31 4 0
BITMAP
03003000
03C0F000
00F7C000
003F0000
000C0000
00000000
00000000
C00FF000
C0FFFE00
C3F00F00
CF800380
FC000180
F00000C0
E00000C0
C00000C0
C00000C0
C00000C0
C00000C0
C00000C0
C00000C0
C00000C0
C00000C0
C00000C0
C00000C0
C00000C0
C00000C0
C00000C0
C00000C0
C00000C0
C00000C0
C00000C0
ENDCHAR
STARTCHAR napostrophe
ENCODING 329
SWIDTH 1025 0
DWIDTH 37 0
BBX 33 24 0 0
BITMAP
71801FF000
6180FFFC00
6187E01E00
E19F000700
C1BC000380
C1F0000180
01C0000180
0180000180
0180000180
0180000180
0180000180
0180000180
0180000180
0180000180
0180000180
0180000180
0180000180
0180000180
0180000180
0180000180
0180000180
0180000180
0180000180
0180000180
ENDCHAR
STARTCHAR Eng
ENCODING 330
SWIDTH 936 0
DWIDTH 34 0
BBX 26 24 4 0
BITMAP
E00000C0
F00000C0
FC0000C0
DE0000C0
C70000C0
C3C000C0
C0E000C0
C07800C0
C03C00C0
C00E00C0
C00780C0
C001C0C0
C000F0C0
C00078C0
C0001CC0
C0000FC0
C00003C0
C00001C0
C00000C0
C0000180
C0000380
C0300700
C03FFE00
C00FF800
ENDCHAR
STARTCHAR eng
ENCODING 331
SWIDTH 933 0
DWIDTH 34 0
BBX 26 24 4 0
BITMAP
C00FF000
C0FFFE00
C3F00F00
CF800380
FC000180
F00000C0
E00000C0
C00000C0
C00000C0
C00000C0
C00000C0
C00000C0
C00000C0
C00000C0
C00000C0
C00000C0
C00000C0
C00000C0
C00000C0
C0000180
C0000380
C0300700
C03FFE00
C00FF800
ENDCHAR
STARTCHAR Omacron
ENCODING 332
SWIDTH 983 0
DWIDTH 35 0
BBX 30 29 3 0
BITMAP
003FF000
003FF000
00000000
00000000
00000000
003FF000
01FFFE00
07C00F80
0E0001C0
18000060
30000030
70000038
60000018
E000001C
C000000C
C000000C
C000000C
C000000C
C000000C
C000000C
E000001C
60000018
70000038
30000030
18000060
0E0001C0
07C00F80
01FFFE00
003FF000
ENDCHAR
STARTCHAR omacron
ENCODING 333
SWIDTH 983 0
DWIDTH 35 0
BBX 30 29 3 0
BITMAP
003FF000
003FF000
00000000
00000000
00000000
003FF000
01FFFE00
07C00F80
0E0001C0
18000060
30000030
70000038
60000018
E000001C
C000000C
C000000C
C000000C
C000000C
C000000C
C000000C
E000001C
60000018
70000038
30000030
18000060
0E0001C0
07C00F80
01FFFE00
003FF000
ENDCHAR
STARTCHAR Obreve
ENCODING 334
SWIDTH 983 0
DWIDTH 35 0
BBX 30 30 3 0
BITMAP
00E03000
00707000
003FE000
001F8000
00000000
00000000
003FF000
01FFFE00
07C00F80
0E0001C0
18000060
30000030
70000038
60000018
E000001C
C000000C
C000000C
C000000C
C000000C
C000000C
C000000C
E000001C
60000018
70000038
30000030
18000060
0E0001C0
07C00F80
01FFFE00
003FF000
ENDCHAR
STARTCHAR obreve
ENCODING 335
SWIDTH 983 0
DWIDTH 35 0
BBX 30 30 3 0
BITMAP
00E03000
00707000
003FE000
001F8000
00000000
00000000
003FF000
01FFFE00
07C00F80
0E0001C0
18000060
30000030
70000038
60000018
E000001C
C000000C
C000000C
C000000C
C000000C
C000000C
C000000C
E000001C
60000018
70000038
30000030
18000060
0E0001C0
07C00F80
01FFFE00
003FF000
ENDCHAR
STARTCHAR Ohungarumlaut
ENCODING 336
SWIDTH 983 0
DWIDTH 35 0
BBX 30 31 3 0
BITMAP
00020800
00071C00
000E3800
0038E000
00104000
00000000
00000000
003FF000
01FFFE00
07C00F80
0E0001C0
18000060
30000030
70000038
60000018
E000001C
C000000C
C000000C
C000000C
C000000C
C000000C
C000000C
E000001C
60000018
70000038
30000030
18000060
0E0001C0
07C00F80
01FFFE00
003FF000
ENDCHAR
STARTCHAR ohungarumlaut
ENCODING 337
SWIDTH 983 0
DWIDTH 35 0
BBX 30 31 3 0
BITMAP
00020800
00071C00
000E3800
0038E000
00104000
00000000
00000000
003FF000
01FFFE00
07C00F80
0E0001C0
18000060
30000030
70000038
60000018
E000001C
C000000C
C000000C
C000000C
C000000C
C000000C
C000000C
E000001C
60000018
70000038
30000030
18000060
0E0001C0
07C00F80
01FFFE00
003FF000
ENDCHAR
STARTCHAR OE
ENCODING 338
SWIDTH 1338 0
DWIDTH 48 0
BBX 43 24 2 0
BITMAP
003FFFFFFFE0
01FFFFFFFFE0
07C003800000
0E0001800000
1C0001800000
300001800000
700001800000
600001800000
E00001800000
C00001800000
C00001FFFFC0
C00001FFFFC0
C00001800000
C00001800000
C00001800000
E00001800000
600001800000
700001800000
300001800000
1C0001800000
0E0001800000
07C003800000
01FFFFFFFFE0
003FFFFFFFE0
ENDCHAR
STARTCHAR oe
ENCODING 339
SWIDTH 1688 0
DWIDTH 61 0
BBX 57 24 2 0
BITMAP
003FF80001FF0000
01FFFF000FFFE000
07E00FC03E00F000
0E0000E070003C00
1C000078E0000C00
30000019C0000600
7000001F80000300
6000000F00000300
E000000F00000300
C000000600000180
C000000600000180
C0000007FFFFFF80
C0000007FFFFFF80
C000000600000000
C000000600000000
E000000F00000000
6000000F00000000
7000001F80000000
3000001980000000
1C000078E0000000
0E0000E070000200
07E007C03F003E00
01FFFF000FFFFE00
003FF80001FFF000
ENDCHAR
STARTCHAR Racute
ENCODING 340
SWIDTH 833 0
DWIDTH 30 0
BBX 24 31 4 0
BITMAP
000600
001E00
007C00
01E000
008000
000000
000000
FFFF80
FFFFE0
C000F0
C00018
C0001C
C0000C
C0000C
C0000C
C0000C
C0001C
C00018
C000F8
FFFFE0
FFFF80
C00180
C001C0
C000C0
C00060
C00030
C00038
C0001C
C0000C
C00006
C00007
ENDCHAR
STARTCHAR racute
ENCODING 341
SWIDTH 609 0
DWIDTH 22 0
BBX 18 31 4 0
BITMAP
000800
003800
00F400
03C000
020000
000000
000000
C03FC0
C0FFC0
C3C040
CF0000
DC0000
F00000
E00000
C00000
C00000
C00000
C00000
C00000
C00000
C00000
C00000
C00000
C00000
C00000
C00000
C00000
C00000
C00000
C00000
C00000
ENDCHAR
STARTCHAR Rcommaaccent
ENCODING 342
SWIDTH 833 0
DWIDTH 30 0
BBX 24 32 4 -8
BITMAP
FFFF80
FFFFE0
C000F0
C00018
C0001C
C0000C
C0000C
C0000C
C0000C
C0001C
C00018
C000F8
FFFFE0
FFFF80
C00180
C001C0
C000C0
C00060
C00030
C00038
C0001C
C0000C
C00006
C00007
000000
000000
000000
003800
003000
003000
003000
006000
ENDCHAR
STARTCHAR rcommaaccent
ENCODING 343
SWIDTH 609 0
DWIDTH 22 0
BBX 18 32 4 -8
BITMAP
C03FC0
C0FFC0
C3C040
CF0000
DC0000
F00000
E00000
C00000
C00000
C00000
C00000
C00000
C00000
C00000
C00000
C00000
C00000
C00000
C00000
C00000
C00000
C00000
C00000
C00000
000000
000000
000000
E00000
C00000
C00000
C00000
C00000
ENDCHAR
STARTCHAR Rcaron
ENCODING 344
SWIDTH 833 0
DWIDTH 30 0
BBX 24 31 4 0
BITMAP
080180
1E0780
03DE00
01F800
006000
000000
000000
FFFF80
FFFFE0
C000F0
C00018
C0001C
C0000C
C0000C
C0000C
C0000C
C0001C
C00018
C000F8
FFFFE0
FFFF80
C00180
C001C0
C000C0
C00060
C00030
C00038
C0001C
C0000C
C00006
C00007
ENDCHAR
STARTCHAR rcaron
ENCODING 345
SWIDTH 609 0
DWIDTH 22 0
BBX 18 31 4 0
BITMAP
200200
3C1F00
0F7800
03E000
008000
000000
000000
C03FC0
C0FFC0
C3C040
CF0000
DC0000
F00000
E00000
C00000
C00000
C00000
C00000
C00000
C00000
C00000
C00000
C00000
C00000
C00000
C00000
C00000
C00000
C00000
C00000
C00000
ENDCHAR
STARTCHAR Sacute
ENCODING 346
SWIDTH 787 0
DWIDTH 28 0
BBX 23 31 3 0
BITMAP
000100
000700
001E00
007800
00C000
000000
000000
03FFC0
1FFFF8
7C00F8
600008
C00000
C00000
C00000
E00000
700000
3E0000
0FC000
01FE00
001FC0
0001F0
000038
00000C
000006
000006
000006
00000E
80001C
F80078
FFFFF0
1FFF80
ENDCHAR
STARTCHAR sacute
ENCODING 347
SWIDTH 787 0
DWIDTH 28 0
BBX 23 31 3 0
BITMAP
000100
000700
001E00
007800
00C000
000000
000000
03FFC0
1FFFF8
7C00F8
600008
C00000
C00000
C00000
E00000
700000
3E0000
0FC000
01FE00
001FC0
0001F0
000038
00000C
000006
000006
000006
00000E
80001C
F80078
FFFFF0
1FFF80
ENDCHAR
STARTCHAR Scircumflex
ENCODING 348
SWIDTH 787 0
DWIDTH 28 0
BBX 23 31 3 0
BITMAP
003000
007C00
01EF00
0783C0
0C0040
000000
000000
03FFC0
1FFFF8
7C00F8
600008
C00000
C00000
C00000
E00000
700000
3E0000
0FC000
01FE00
001FC0
0001F0
000038
00000C
000006
000006
000006
00000E
80001C
F80078
FFFFF0
1FFF80
ENDCHAR
STARTCHAR scircumflex
ENCODING 349
SWIDTH 787 0
DWIDTH 28 0
BBX 23 31 3 0
BITMAP
003000
007C00
01EF00
0783C0
0C0040
000000
000000
03FFC0
1FFFF8
7C00F8
600008
C00000
C00000
C00000
E00000
700000
3E0000
0FC000
01FE00
001FC0
0001F0
000038
00000C
000006
000006
000006
00000E
80001C
F80078
FFFFF0
1FFF80
ENDCHAR
STARTCHAR Scedilla
ENCODING 350
SWIDTH 787 0
DWIDTH 28 0
BBX 23 31 3 -7
BITMAP
03FFC0
1FFFF8
3C00F8
600008
C00000
C00000
C00000
E00000
700000
3E0000
0FC000
01FE00
001FC0
0001F0
000038
00000C
000006
000006
000006
00000E
80001C
F80078
FFFFF0
1FFF80
003000
003000
007C00
000600
000600
01FE00
01FC00
ENDCHAR
STARTCHAR scedilla
ENCODING 351
SWIDTH 787 0
DWIDTH 28 0
BBX 23 31 3 -7
BITMAP
03FFC0
1FFFF8
3C00F8
600008
C00000
C00000
C00000
E00000
700000
3E0000
0FC000
01FE00
001FC0
0001F0
000038
00000C
000006
000006
000006
00000E
80001C
F80078
FFFFF0
1FFF80
003000
003000
007C00
000600
000600
01FE00
01FC00
ENDCHAR
STARTCHAR Scaron
ENCODING 352
SWIDTH 787 0
DWIDTH 28 0
BBX 23 31 3 0
BITMAP
040040
0F83C0
01EF00
007C00
003000
000000
000000
03FFC0
1FFFF8
7C00F8
600008
C00000
C00000
C00000
E00000
700000
3E0000
0FC000
01FE00
001FC0
0001F0
000038
00000C
000006
000006
000006
00000E
80001C
F80078
FFFFF0
1FFF80
ENDCHAR
STARTCHAR scaron
ENCODING 353
SWIDTH 787 0
DWIDTH 28 0
BBX 23 31 3 0
BITMAP
040040
0F83C0
01EF00
007C00
003000
000000
000000
03FFC0
1FFFF8
7C00F8
600008
C00000
C00000
C00000
E00000
700000
3E0000
0FC000
01FE00
001FC0
0001F0
000038
00000C
000006
000006
000006
00000E
80001C
F80078
FFFFF0
1FFF80
ENDCHAR
STARTCHAR Tcommaaccent
ENCODING 354
SWIDTH 708 0
DWIDTH 26 0
BBX 24 32 1 -8
BITMAP
FFFFFF
FFFFFF
001800
001800
001800
001800
001800
001800
001800
001800
001800
001800
001800
001800
001800
001800
001800
001800
001800
001800
001800
001800
001800
001800
000000
000000
000000
001800
001800
001800
003000
003000
ENDCHAR
STARTCHAR tcommaaccent
ENCODING 355
SWIDTH 708 0
DWIDTH 26 0
BBX 24 32 1 -8
BITMAP
FFFFFF
FFFFFF
001800
001800
001800
001800
001800
001800
001800
001800
001800
001800
001800
001800
001800
001800
001800
001800
001800
001800
001800
001800
001800
001800
000000
000000
000000
001800
001800
001800
003000
003000
ENDCHAR
STARTCHAR Tcaron
ENCODING 356
SWIDTH 708 0
DWIDTH 26 0
BBX 24 31 1 0
BITMAP
020060
0781E0
00F780
007E00
001800
000000
000000
FFFFFF
FFFFFF
001800
001800
001800
001800
001800
001800
001800
001800
001800
001800
001800
001800
001800
001800
001800
001800
001800
001800
001800
001800
001800
001800
ENDCHAR
STARTCHAR tcaron
ENCODING 357
SWIDTH 708 0
DWIDTH 26 0
BBX 24 31 1 0
BITMAP
020060
0781E0
00F780
007E00
001800
000000
000000
FFFFFF
FFFFFF
001800
001800
001800
001800
001800
001800
001800
001800
001800
001800
001800
001800
001800
001800
001800
001800
001800
001800
001800
001800
001800
001800
ENDCHAR
STARTCHAR Tbar
ENCODING 358
SWIDTH 708 0
DWIDTH 26 0
BBX 24 24 1 0
BITMAP
FFFFFF
FFFFFF
001800
001800
001800
001800
001800
001800
001800
1FFFF8
1FFFF8
001800
001800
001800
001800
001800
001800
001800
001800
001800
001800
001800
001800
001800
ENDCHAR
STARTCHAR tbar
ENCODING 359
SWIDTH 708 0
DWIDTH 26 0
BBX 24 24 1 0
BITMAP
FFFFFF
FFFFFF
001800
001800
001800
001800
001800
001800
001800
1FFFF8
1FFFF8
001800
001800
001800
001800
001800
001800
001800
001800
001800
001800
001800
001800
001800
ENDCHAR
STARTCHAR Utilde
ENCODING 360
SWIDTH 891 0
DWIDTH 32 0
BBX 24 30 4 0
BITMAP
01C0C0
03F180
031F80
030700
000000
000000
C00003
C00003
C00003
C00003
C00003
C00003
C00003
C00003
C00003
C00003
C00003
C00003
C00003
C00003
C00003
C00003
C00003
C00003
E00007
70000E
38001C
1F00F8
0FFFF0
01FF80
ENDCHAR
STARTCHAR utilde
ENCODING 361
SWIDTH 931 0
DWIDTH 34 0
BBX 25 30 4 0
BITMAP
00E0C000
01F8C000
039FC000
03078000
00000000
00000000
C0000180
C0000180
C0000180
C0000180
C0000180
C0000180
C0000180
C0000180
C0000180
C0000180
C0000180
C0000180
C0000180
C0000180
C0000180
C0000180
C0000180
C0000380
C0000780
60001F80
70007980
3C03E180
1FFF8180
03FC0180
ENDCHAR
STARTCHAR Umacron
ENCODING 362
SWIDTH 891 0
DWIDTH 32 0
BBX 24 29 4 0
BITMAP
00FFC0
00FFC0
000000
000000
000000
C00003
C00003
C00003
C00003
C00003
C00003
C00003
C00003
C00003
C00003
C00003
C00003
C00003
C00003
C00003
C00003
C00003
C00003
E00007
70000E
38001C
1F00F8
0FFFF0
01FF80
ENDCHAR
STARTCHAR umacron
ENCODING 363
SWIDTH 931 0
DWIDTH 34 0
BBX 25 29 4 0
BITMAP
00FFC000
00FFC000
00000000
00000000
00000000
C0000180
C0000180
C0000180
C0000180
C0000180
C0000180
C0000180
C0000180
C0000180
C0000180
C0000180
C0000180
C0000180
C0000180
C0000180
C0000180
C0000180
C0000380
C0000780
60001F80
70007980
3C03E180
1FFF8180
03FC0180
ENDCHAR
STARTCHAR Ubreve
ENCODING 364
SWIDTH 891 0
DWIDTH 32 0
BBX 24 30 4 0
BITMAP
0301C0
038380
01FF00
007C00
000000
000000
C00003
C00003
C00003
C00003
C00003
C00003
C00003
C00003
C00003
C00003
C00003
C00003
C00003
C00003
C00003
C00003
C00003
C00003
E00007
70000E
38001C
1F00F8
0FFFF0
01FF80
ENDCHAR
STARTCHAR ubreve
ENCODING 365
SWIDTH 931 0
DWIDTH 34 0
BBX 25 30 4 0
BITMAP
0380C000
01C1C000
00FF8000
007E0000
00000000
00000000
C0000180
C0000180
C0000180
C0000180
C0000180
C0000180
C0000180
C0000180
C0000180
C0000180
C0000180
C0000180
C0000180
C0000180
C0000180
C0000180
C0000180
C0000380
C0000780
60001F80
70007980
3C03E180
1FFF8180
03FC0180
ENDCHAR
STARTCHAR Uring
ENCODING 366
SWIDTH 891 0
DWIDTH 32 0
BBX 24 33 4 0
BITMAP
003E00
007F00
00E380
00C180
00E380
007F00
003E00
000000
000000
C00003
C00003
C00003
C00003
C00003
C00003
C00003
C00003
C00003
C00003
C00003
C00003
C00003
C00003
C00003
C00003
C00003
C00003
E00007
70000E
38001C
1F00F8
0FFFF0
01FF80
ENDCHAR
STARTCHAR uring
ENCODING 367
SWIDTH 931 0
DWIDTH 34 0
BBX 25 33 4 0
BITMAP
003E0000
007F0000
00E38000
00C18000
00E38000
007F0000
003E0000
00000000
00000000
C0000180
C0000180
C0000180
C0000180
C0000180
C0000180
C0000180
C0000180
C0000180
C0000180
C0000180
C0000180
C0000180
C0000180
C0000180
C0000180
C0000180
C0000380
C0000780
60001F80
70007980
3C03E180
1FFF8180
03FC0180
ENDCHAR
STARTCHAR Uhungarumlaut
ENCODING 368
SWIDTH 891 0
DWIDTH 32 0
BBX 24 31 4 0
BITMAP
000820
001C70
0038E0
00E380
004100
000000
000000
C00003
C00003
C00003
C00003
C00003
C00003
C00003
C00003
C00003
C00003
C00003
C00003
C00003
C00003
C00003
C00003
C00003
C00003
E00007
70000E
38001C
1F00F8
0FFFF0
01FF80
ENDCHAR
STARTCHAR uhungarumlaut
ENCODING 369
SWIDTH 931 0
DWIDTH 34 0
BBX 25 31 4 0
BITMAP
00082000
001C7000
0038E000
00E38000
00410000
00000000
00000000
C0000180
C0000180
C0000180
C0000180
C0000180
C0000180
C0000180
C0000180
C0000180
C0000180
C0000180
C0000180
C0000180
C0000180
C0000180
C0000180
C0000180
C0000380
C0000780
60001F80
70007980
3C03E180
1FFF8180
03FC0180
ENDCHAR
STARTCHAR Uogonek
ENCODING 370
SWIDTH 891 0
DWIDTH 32 0
BBX 24 30 4 -6
BITMAP
C00003
C00003
C00003
C00003
C00003
C00003
C00003
C00003
C00003
C00003
C00003
C00003
C00003
C00003
C00003
C00003
C00003
C00003
E00007
70000E
38001E
1F00FC
0FFFF0
01FF80
003000
002000
006000
006000
007F80
001F80
ENDCHAR
STARTCHAR uogonek
ENCODING 371
SWIDTH 931 0
DWIDTH 34 0
BBX 28 30 4 -6
BITMAP
C0000180
C0000180
C0000180
C0000180
C0000180
C0000180
C0000180
C0000180
C0000180
C0000180
C0000180
C0000180
C0000180
C0000180
C0000180
C0000180
C0000180
C0000380
C0000780
60001F80
70007980
3C03E180
1FFF8180
03FC0180
00000300
00000600
00000C00
00000C00
00000FF0
000007F0
ENDCHAR
STARTCHAR Wcircumflex
ENCODING 372
SWIDTH 1266 0
DWIDTH 46 0
BBX 43 31 1 0
BITMAP
000006000000
00001F800000
00003DE00000
0000F0780000
000180180000
000000000000
000000000000
E0000E0000E0
60001F0000C0
70001B0001C0
30001B000180
30003B800180
380031800380
180031800300
1C0071C00700
0C0060C00600
0C00E0E00600
0E00C0600E00
0600C0600C00
0701C0701C00
030180301800
030380381800
038300183800
018300183000
01C7001C7000
00C6000C6000
00C6000C6000
00EC0006E000
006C0006C000
007C0007C000
003800038000
ENDCHAR
STARTCHAR wcircumflex
ENCODING 373
SWIDTH 1266 0
DWIDTH 46 0
BBX 43 31 1 0
BITMAP
000006000000
00001F800000
00003DE00000
0000F0780000
000180180000
000000000000
000000000000
E0000E0000E0
60001F0000C0
70001B0001C0
30001B000180
30003B800180
380031800380
180031800300
1C0071C00700
0C0060C00600
0C00E0E00600
0E00C0600E00
0600C0600C00
0701C0701C00
030180301800
030380381800
038300183800
018300183000
01C7001C7000
00C6000C6000
00C6000C6000
00EC0006E000
006C0006C000
007C0007C000
003800038000
ENDCHAR
STARTCHAR Ycircumflex
ENCODING 374
SWIDTH 763 0
DWIDTH 27 0
BBX 24 31 2 0
BITMAP
001800
007E00
00F780
03C1E0
060060
000000
000000
E00007
60000E
30000C
180018
1C0038
0E0070
0700E0
0300C0
018180
01C380
00E700
007E00
003C00
001800
001800
001800
001800
001800
001800
001800
001800
001800
001800
001800
ENDCHAR
STARTCHAR ycircumflex
ENCODING 375
SWIDTH 911 0
DWIDTH 33 0
BBX 25 31 3 0
BITMAP
00040000
001F0000
007BC000
01E0F000
03001000
00000000
00000000
C0000180
C0000180
C0000180
C0000180
C0000180
C0000180
C0000180
C0000180
C0000380
E0000780
60000F80
70001D80
38003980
1E01F180
0FFFC180
01FE0180
00000180
00000380
00000300
00000F00
80001E00
F800F800
FFFFF000
1FFF0000
ENDCHAR
STARTCHAR Ydieresis
ENCODING 376
SWIDTH 763 0
DWIDTH 27 0
BBX 24 29 2 0
BITMAP
01C380
01C380
01C380
000000
000000
E00007
60000E
30000C
180018
1C0038
0E0070
0700E0
0300C0
018180
01C380
00E700
007E00
003C00
001800
001800
001800
001800
001800
001800
001800
001800
001800
001800
001800
ENDCHAR
STARTCHAR Zacute
ENCODING 377
SWIDTH 728 0
DWIDTH 26 0
BBX 21 31 3 0
BITMAP
000200
000F00
003C00
00F000
00C000
000000
000000
FFFFF8
FFFFF8
000070
0000E0
0001C0
000180
000300
000600
000E00
001C00
003800
007000
00E000
00C000
018000
038000
070000
0E0000
1C0000
380000
300000
600000
FFFFF8
FFFFF8
ENDCHAR
STARTCHAR zacute
ENCODING 378
SWIDTH 728 0
DWIDTH 26 0
BBX 21 31 3 0
BITMAP
000200
000F00
003C00
00F000
00C000
000000
000000
FFFFF8
FFFFF8
000070
0000E0
0001C0
000180
000300
000600
000E00
001C00
003800
007000
00E000
00C000
018000
038000
070000
0E0000
1C0000
380000
300000
600000
FFFFF8
FFFFF8
ENDCHAR
STARTCHAR Zdotaccent
ENCODING 379
SWIDTH 728 0
DWIDTH 26 0
BBX 21 29 3 0
BITMAP
007000
007000
007000
000000
000000
FFFFF8
FFFFF8
000070
0000E0
0001C0
000180
000300
000600
000E00
001C00
003800
007000
00E000
00C000
018000
038000
070000
0E0000
1C0000
380000
300000
600000
FFFFF8
FFFFF8
ENDCHAR
STARTCHAR zdotaccent
ENCODING 380
SWIDTH 728 0
DWIDTH 26 0
BBX 21 29 3 0
BITMAP
007000
007000
007000
000000
000000
FFFFF8
FFFFF8
000070
0000E0
0001C0
000180
000300
000600
000E00
001C00
003800
007000
00E000
00C000
018000
038000
070000
0E0000
1C0000
380000
300000
600000
FFFFF8
FFFFF8
ENDCHAR
STARTCHAR Zcaron
ENCODING 381
SWIDTH 728 0
DWIDTH 26 0
BBX 21 31 3 0
BITMAP
0C0080
0F03C0
03DF00
00FC00
003000
000000
000000
FFFFF8
FFFFF8
000070
0000E0
0001C0
000180
000300
000600
000E00
001C00
003800
007000
00E000
00C000
018000
038000
070000
0E0000
1C0000
380000
300000
600000
FFFFF8
FFFFF8
ENDCHAR
STARTCHAR zcaron
ENCODING 382
SWIDTH 728 0
DWIDTH 26 0
BBX 21 31 3 0
BITMAP
0C0080
0F03C0
03DF00
00FC00
003000
000000
000000
FFFFF8
FFFFF8
000070
0000E0
0001C0
000180
000300
000600
000E00
001C00
003800
007000
00E000
00C000
018000
038000
070000
0E0000
1C0000
380000
300000
600000
FFFFF8
FFFFF8
ENDCHAR
STARTCHAR florin
ENCODING 402
SWIDTH 835 0
DWIDTH 30 0
BBX 28 25 1 -1
BITMAP
00000FF0
00003FF0
00007010
0000E000
0000C000
00018000
00018000
00018000
00018000
00FFFC00
00FFFC00
00030000
00060000
00060000
00060000
000C0000
000C0000
000C0000
00180000
00180000
00180000
00300000
80F00000
FFE00000
FF800000
ENDCHAR
STARTCHAR AEacute
ENCODING 508
SWIDTH 1172 0
DWIDTH 42 0
BBX 39 31 0 0
BITMAP
0000000200
0000000F00
0000003E00
000000F000
0000004000
0000000000
0000000000
0000FFFFFE
0001FFFFFE
0001980000
0003180000
0007180000
000E180000
000C180000
001C180000
0038180000
0038180000
00701FFFFC
00E01FFFFC
00E0180000
01C0180000
0380180000
0380180000
07FFF80000
0FFFF80000
0E00180000
1C00180000
3800180000
3800180000
70001FFFFE
E0001FFFFE
ENDCHAR
STARTCHAR aeacute
ENCODING 509
SWIDTH 1551 0
DWIDTH 56 0
BBX 52 31 2 0
BITMAP
00000002000000
0000000F000000
0000003C000000
000000F0000000
000000C0000000
00000000000000
00000000000000
03FFE0003FE000
3FFFFC01FFFC00
3F003F07C01E00
3000078E000780
0000019C000180
000000F80000C0
000000F0000060
000000E0000060
000000E0000060
00007FC0000030
003FFFC0000030
03FF80FFFFFFF0
0FC000FFFFFFF0
3C0000C0000000
700000C0000000
E00000E0000000
C0000060000000
C0000070000000
C0000070000000
E00001FC000000
70000F8E000040
3C00FE07E007C0
1FFFF001FFFFC0
07FF00003FFE00
ENDCHAR
STARTCHAR Oslashacute
ENCODING 510
SWIDTH 983 0
DWIDTH 35 0
BBX 31 34 2 -3
BITMAP
00001800
00007800
0000F000
00038000
00060030
00000060
000000C0
003FF980
01FFFF80
07E007C0
0E0006E0
1C000E70
30001C18
7000181C
6000300C
E000600E
C000E006
C000C006
C0018006
C0030006
C0070006
C00E0006
E00C000E
6018000C
7030001C
30700018
1CE00070
0EC000E0
07C007C0
03FFFF00
033FF800
06000000
0C000000
18000000
ENDCHAR
STARTCHAR oslashacute
ENCODING 511
SWIDTH 983 0
DWIDTH 35 0
BBX 31 34 2 -3
BITMAP
00001800
00007800
0000F000
00038000
00060030
00000060
000000C0
003FF980
01FFFF80
07E007C0
0E0006E0
1C000E70
30001C18
7000181C
6000300C
E000600E
C000E006
C000C006
C0018006
C0030006
C0070006
C00E0006
E00C000E
6018000C
7030001C
30700018
1CE00070
0EC000E0
07C007C0
03FFFF00
033FF800
06000000
0C000000
18000000
ENDCHAR
STARTCHAR dotlessj
ENCODING 567
SWIDTH 590 0
DWIDTH 21 0
BBX 17 24 0 0
BITMAP
000180
000180
000180
000180
000180
000180
000180
000180
000180
000180
000180
000180
000180
000180
000180
000180
000180
000180
000180
000300
000700
C01E00
FFFC00
3FE000
ENDCHAR
STARTCHAR circumflex
ENCODING 710
SWIDTH 527 0
DWIDTH 19 0
BBX 14 5 3 20
BITMAP
0300
0FC0
3FF0
F03C
C00C
ENDCHAR
STARTCHAR caron
ENCODING 711
SWIDTH 527 0
DWIDTH 19 0
BBX 14 5 3 20
BITMAP
C00C
F03C
3FF0
0FC0
0300
ENDCHAR
STARTCHAR breve
ENCODING 728
SWIDTH 527 0
DWIDTH 19 0
BBX 12 4 3 20
BITMAP
C030
60E0
7FE0
1F80
ENDCHAR
STARTCHAR dotaccent
ENCODING 729
SWIDTH 527 0
DWIDTH 19 0
BBX 3 3 8 20
BITMAP
E0
E0
E0
ENDCHAR
STARTCHAR ring
ENCODING 730
SWIDTH 527 0
DWIDTH 19 0
BBX 9 7 5 20
BITMAP
3E00
7F00
E380
C180
E380
7F00
3E00
ENDCHAR
STARTCHAR ogonek
ENCODING 731
SWIDTH 527 0
DWIDTH 19 0
BBX 8 6 6 -6
BITMAP
38
60
C0
C0
FF
7F
ENDCHAR
STARTCHAR tilde
ENCODING 732
SWIDTH 527 0
DWIDTH 19 0
BBX 12 4 3 20
BITMAP
7830
7E30
C7E0
C1E0
ENDCHAR
STARTCHAR hungarumlaut
ENCODING 733
SWIDTH 527 0
DWIDTH 19 0
BBX 12 5 5 20
BITMAP
0820
1C70
38E0
E380
4100
ENDCHAR
STARTCHAR commaaccent
ENCODING 806
SWIDTH 527 0
DWIDTH 19 0
BBX 3 5 8 -8
BITMAP
60
E0
C0
C0
C0
ENDCHAR
STARTCHAR mu
ENCODING 956
SWIDTH 705 0
DWIDTH 25 0
BBX 21 24 1 -7
BITMAP
060018
060018
0E0038
0C0030
0C0030
0C0030
0C0030
0C0030
180060
180060
180060
1800E0
1801E0
3C0360
360E60
33FC60
31F030
300000
600000
600000
600000
600000
600000
C00000
ENDCHAR
STARTCHAR Wgrave
ENCODING 7808
SWIDTH 1266 0
DWIDTH 46 0
BBX 43 31 1 0
BITMAP
000080000000
0001E0000000
000078000000
00001E000000
000006000000
000000000000
000000000000
E0000E0000E0
60001F0000C0
70001B0001C0
30001B000180
30003B800180
380031800380
180031800300
1C0071C00700
0C0060C00600
0C00E0E00600
0E00C0600E00
0600C0600C00
0701C0701C00
030180301800
030380381800
038300183800
018300183000
01C7001C7000
00C6000C6000
00C6000C6000
00EC0006E000
006C0006C000
007C0007C000
003800038000
ENDCHAR
STARTCHAR wgrave
ENCODING 7809
SWIDTH 1266 0
DWIDTH 46 0
BBX 43 31 1 0
BITMAP
000080000000
0001E0000000
000078000000
00001E000000
000006000000
000000000000
000000000000
E0000E0000E0
60001F0000C0
70001B0001C0
30001B000180
30003B800180
380031800380
180031800300
1C0071C00700
0C0060C00600
0C00E0E00600
0E00C0600E00
0600C0600C00
0701C0701C00
030180301800
030380381800
038300183800
018300183000
01C7001C7000
00C6000C6000
00C6000C6000
00EC0006E000
006C0006C000
007C0007C000
003800038000
ENDCHAR
STARTCHAR Wacute
ENCODING 7810
SWIDTH 1266 0
DWIDTH 46 0
BBX 43 31 1 0
BITMAP
000000600000
000001E00000
000007C00000
00000E000000
000018000000
000000000000
000000000000
E0000E0000E0
60001F0000C0
70001B0001C0
30001B000180
30003B800180
380031800380
180031800300
1C0071C00700
0C0060C00600
0C00E0E00600
0E00C0600E00
0600C0600C00
0701C0701C00
030180301800
030380381800
038300183800
018300183000
01C7001C7000
00C6000C6000
00C6000C6000
00EC0006E000
006C0006C000
007C0007C000
003800038000
ENDCHAR
STARTCHAR wacute
ENCODING 7811
SWIDTH 1266 0
DWIDTH 46 0
BBX 43 31 1 0
BITMAP
000000600000
000001E00000
000007C00000
00000E000000
000018000000
000000000000
000000000000
E0000E0000E0
60001F0000C0
70001B0001C0
30001B000180
30003B800180
380031800380
180031800300
1C0071C00700
0C0060C00600
0C00E0E00600
0E00C0600E00
0600C0600C00
0701C0701C00
030180301800
030380381800
038300183800
018300183000
01C7001C7000
00C6000C6000
00C6000C6000
00EC0006E000
006C0006C000
007C0007C000
003800038000
ENDCHAR
STARTCHAR Wdieresis
ENCODING 7812
SWIDTH 1266 0
DWIDTH 46 0
BBX 43 29 1 0
BITMAP
000070E00000
000070E00000
000070E00000
000000000000
000000000000
E0000E0000E0
60001F0000C0
70001B0001C0
30001B000180
30003B800180
380031800380
180031800300
1C0071C00700
0C0060C00600
0C00E0E00600
0E00C0600E00
0600C0600C00
0701C0701C00
030180301800
030380381800
038300183800
018300183000
01C7001C7000
00C6000C6000
00C6000C6000
00EC0006E000
006C0006C000
007C0007C000
003800038000
ENDCHAR
STARTCHAR wdieresis
ENCODING 7813
SWIDTH 1266 0
DWIDTH 46 0
BBX 43 29 1 0
BITMAP
000070E00000
000070E00000
000070E00000
000000000000
000000000000
E0000E0000E0
60001F0000C0
70001B0001C0
30001B000180
30003B800180
380031800380
180031800300
1C0071C00700
0C0060C00600
0C00E0E00600
0E00C0600E00
0600C0600C00
0701C0701C00
030180301800
030380381800
038300183800
018300183000
01C7001C7000
00C6000C6000
00C6000C6000
00EC0006E000
006C0006C000
007C0007C000
003800038000
ENDCHAR
STARTCHAR Ygrave
ENCODING 7922
SWIDTH 763 0
DWIDTH 27 0
BBX 24 31 2 0
BITMAP
020000
078000
01E000
007800
001800
000000
000000
E00007
60000E
30000C
180018
1C0038
0E0070
0700E0
0300C0
018180
01C380
00E700
007E00
003C00
001800
001800
001800
001800
001800
001800
001800
001800
001800
001800
001800
ENDCHAR
STARTCHAR ygrave
ENCODING 7923
SWIDTH 911 0
DWIDTH 33 0
BBX 25 31 3 0
BITMAP
01000000
01C00000
02F00000
003C0000
00040000
00000000
00000000
C0000180
C0000180
C0000180
C0000180
C0000180
C0000180
C0000180
C0000180
C0000380
E0000780
60000F80
70001D80
38003980
1E01F180
0FFFC180
01FE0180
00000180
00000380
00000300
00000F00
80001E00
F800F800
FFFFF000
1FFF0000
ENDCHAR
STARTCHAR endash
ENCODING 8211
SWIDTH 419 0
DWIDTH 15 0
BBX 14 2 1 11
BITMAP
FFFC
FFFC
ENDCHAR
STARTCHAR emdash
ENCODING 8212
SWIDTH 1000 0
DWIDTH 36 0
BBX 36 2 0 11
BITMAP
FFFFFFFFF0
FFFFFFFFF0
ENDCHAR
STARTCHAR quoteleft
ENCODING 8216
SWIDTH 163 0
DWIDTH 6 0
BBX 4 6 1 18
BITMAP
30
30
60
60
60
E0
ENDCHAR
STARTCHAR quoteright
ENCODING 8217
SWIDTH 163 0
DWIDTH 6 0
BBX 4 6 1 18
BITMAP
70
60
60
60
C0
C0
ENDCHAR
STARTCHAR quotesinglbase
ENCODING 8218
SWIDTH 163 0
DWIDTH 6 0
BBX 4 6 1 -3
BITMAP
70
60
60
60
C0
C0
ENDCHAR
STARTCHAR quotedblleft
ENCODING 8220
SWIDTH 303 0
DWIDTH 11 0
BBX 9 6 1 18
BITMAP
3180
3180
6300
6300
6300
E700
ENDCHAR
STARTCHAR quotedblright
ENCODING 8221
SWIDTH 303 0
DWIDTH 11 0
BBX 9 6 1 18
BITMAP
7380
6300
6300
6300
C600
C600
ENDCHAR
STARTCHAR quotedblbase
ENCODING 8222
SWIDTH 303 0
DWIDTH 11 0
BBX 9 6 1 -3
BITMAP
7380
6300
6300
6300
C600
C600
ENDCHAR
STARTCHAR dagger
ENCODING 8224
SWIDTH 500 0
DWIDTH 18 0
BBX 12 24 3 0
BITMAP
0600
0600
0600
0600
0600
0600
FFF0
FFF0
0600
0600
0600
0600
0600
0600
0600
0600
0600
0600
0600
0600
0600
0600
0600
0600
ENDCHAR
STARTCHAR daggerdbl
ENCODING 8225
SWIDTH 500 0
DWIDTH 18 0
BBX 12 24 3 0
BITMAP
0600
0600
0600
0600
0600
0600
FFF0
FFF0
0600
0600
0600
0600
0600
0600
FFF0
FFF0
0600
0600
0600
0600
0600
0600
0600
0600
ENDCHAR
STARTCHAR bullet
ENCODING 8226
SWIDTH 352 0
DWIDTH 13 0
BBX 7 7 3 9
BITMAP
38
7C
FE
FE
FE
7C
38
ENDCHAR
STARTCHAR ellipsis
ENCODING 8230
SWIDTH 555 0
DWIDTH 20 0
BBX 17 4 2 0
BITMAP
E1C380
E1C380
E1C380
E1C380
ENDCHAR
STARTCHAR perthousand
ENCODING 8240
SWIDTH 1401 0
DWIDTH 50 0
BBX 47 24 2 0
BITMAP
0FC000C00000
3FF001800000
703803000000
601806000000
C00C0C000000
C00C0C000000
C00C18000000
C00C30000000
601860000000
7038C0000000
3FF0C0000000
0FC180000000
000307E007E0
00061FF81FF8
0006381C381C
000C300C300C
001860066006
003060066006
006060066006
006060066006
00C0300C300C
0180381C381C
03001FF81FF8
060007E007E0
ENDCHAR
STARTCHAR guilsinglleft
ENCODING 8249
SWIDTH 257 0
DWIDTH 9 0
BBX 7 13 1 6
BITMAP
04
0E
1C
38
70
E0
C0
E0
70
38
1C
0E
04
ENDCHAR
STARTCHAR guilsinglright
ENCODING 8250
SWIDTH 257 0
DWIDTH 9 0
BBX 7 13 1 6
BITMAP
40
E0
70
38
1C
0E
06
0E
1C
38
70
E0
40
ENDCHAR
STARTCHAR fraction
ENCODING 8260
SWIDTH 200 0
DWIDTH 7 0
BBX 22 24 -7 0
BITMAP
00000C
000018
000030
000060
0000C0
000180
000180
000300
000600
000C00
001800
003000
003000
006000
00C000
018000
030000
060000
060000
0C0000
180000
300000
600000
C00000
ENDCHAR
STARTCHAR Euro
ENCODING 8364
SWIDTH 833 0
DWIDTH 30 0
BBX 27 24 0 0
BITMAP
0007FC00
003FFFC0
007803E0
00E00060
01800020
03000000
07000000
06000000
06000000
FFFFF800
FFFFF800
0C000000
0C000000
0C000000
7FFFE000
FFFFE000
06000000
06000000
07000000
03800020
01C00060
00F803E0
003FFFC0
0007FC00
ENDCHAR
STARTCHAR trademark
ENCODING 8482
SWIDTH 773 0
DWIDTH 28 0
BBX 24 10 1 14
BITMAP
FFDC07
0C1C07
0C1E0F
0C1A0B
0C1B1B
0C1913
0C19B3
0C18A3
0C18E3
0C1843
ENDCHAR
STARTCHAR partialdiff
ENCODING 8706
SWIDTH 790 0
DWIDTH 28 0
BBX 24 24 2 0
BITMAP
003F80
01FFF0
03C078
02001C
00000E
000006
000007
000003
00FF03
07FFC3
1F01F3
38003F
70001F
600007
C00006
C00006
C0000E
C0000C
C0001C
600038
7000F0
3C03E0
0FFF80
03FC00
ENDCHAR
STARTCHAR minus
ENCODING 8722
SWIDTH 634 0
DWIDTH 23 0
BBX 17 2 3 11
BITMAP
FFFF80
FFFF80
ENDCHAR
STARTCHAR uni2215
ENCODING 8725
SWIDTH 200 0
DWIDTH 7 0
BBX 22 24 -7 0
BITMAP
00000C
000018
000030
000060
0000C0
000180
000180
000300
000600
000C00
001800
003000
003000
006000
00C000
018000
030000
060000
060000
0C0000
180000
300000
600000
C00000
ENDCHAR
STARTCHAR approxequal
ENCODING 8776
SWIDTH 634 0
DWIDTH 23 0
BBX 17 10 3 8
BITMAP
3E0080
7FC180
C1FF00
803E00
000000
000000
3E0080
7FC180
C1FF00
803E00
ENDCHAR
STARTCHAR notequal
ENCODING 8800
SWIDTH 634 0
DWIDTH 23 0
BBX 17 19 3 3
BITMAP
001800
003000
003000
003000
006000
FFFF80
FFFF80
00C000
00C000
018000
018000
018000
FFFF80
FFFF80
030000
060000
060000
060000
0C0000
ENDCHAR
STARTCHAR lessequal
ENCODING 8804
SWIDTH 634 0
DWIDTH 23 0
BBX 17 19 3 2
BITMAP
000080
000780
001F00
00F800
03E000
0F8000
7C0000
F00000
F00000
7C0000
0F8000
03E000
00F800
001F00
000780
000080
000000
FFFF80
FFFF80
ENDCHAR
STARTCHAR greaterequal
ENCODING 8805
SWIDTH 634 0
DWIDTH 23 0
BBX 17 19 3 2
BITMAP
800000
F00000
7C0000
0F8000
03E000
00F800
001F00
000780
000780
001F00
00F800
03E000
0F8000
7C0000
F00000
800000
000000
FFFF80
FFFF80
ENDCHAR
STARTCHAR fi
ENCODING 64257
SWIDTH 1104 0
DWIDTH 40 0
BBX 31 24 4 0
BITMAP
01FFFE06
0FFFFE06
3E000006
70000006
60000006
E0000006
C0000006
C0000006
C0000006
C0000006
C0000006
FFFFFE06
FFFFFE06
C0000006
C0000006
C0000006
C0000006
C0000006
C0000006
C0000006
C0000006
C0000006
C0000006
C0000006
ENDCHAR
STARTCHAR fl
ENCODING 64258
SWIDTH 1527 0
DWIDTH 55 0
BBX 50 24 4 0
BITMAP
01FFFE06000000
0FFFFE06000000
3E000006000000
70000006000000
60000006000000
E0000006000000
C0000006000000
C0000006000000
C0000006000000
C0000006000000
C0000006000000
FFFFFE06000000
FFFFFE06000000
C0000006000000
C0000006000000
C0000006000000
C0000006000000
C0000007000000
C0000003000000
C0000003000000
C0000003800000
C0000001E00000
C0000000FFFFC0
C00000003FFFC0
ENDCHAR
STARTCHAR .notdef
ENCODING -1
SWIDTH 1000 0
DWIDTH 36 0
BBX 1 1 0 0
BITMAP
00
ENDCHAR
ENDFONT
